<?xml version="1.0" encoding="utf-8"?>
<!-- Generator: Adobe Illustrator 24.0.2, SVG Export Plug-In . SVG Version: 6.00 Build 0)  -->
<svg version="1.1" id="Слой_1" xmlns="http://www.w3.org/2000/svg" xmlns:xlink="http://www.w3.org/1999/xlink" x="0px" y="0px"
	 viewBox="0 0 27.64 46.5" style="enable-background:new 0 0 27.64 46.5;" xml:space="preserve">
<style type="text/css">
	.st0{fill:#4B7DBF;}
	.st1{fill:url(#SVGID_1_);}
	.st2{fill:url(#SVGID_2_);}
	.st3{fill:#FFFFFF;}
	.st4{fill:url(#SVGID_3_);}
	.st5{fill:url(#SVGID_4_);}
	.st6{fill:url(#SVGID_5_);}
	.st7{fill:#2585E5;}
</style>
<path class="st3" d="M13.82,0C6.2,0,0,6.2,0,13.82v29.17c0,1.93,1.57,3.51,3.51,3.51H5c1.93,0,3.51-1.57,3.51-3.51v-4.46h10.62v4.46
	c0,1.93,1.57,3.51,3.51,3.51h1.5c1.93,0,3.51-1.57,3.51-3.51V13.82C27.64,6.2,21.44,0,13.82,0z M19.13,13.82v4.64H8.51v-4.64
	c0-0.15,0.01-0.29,0.02-0.43h10.58C19.12,13.53,19.13,13.67,19.13,13.82z M8.78,12.17c0.71-2.17,2.74-3.66,5.04-3.66
	c2.3,0,4.33,1.49,5.04,3.66H8.78z M20.63,38.53h1.25v-1.22h-1.25v-5.07h1.25v-1.22h-1.25v-5.07h1.25v-1.22h-1.25v-5.07h1.25v-1.22
	h-1.25v-4.64c0-0.14,0-0.29-0.01-0.43h1.26v-1.22h-1.46c-0.75-3-3.5-5.16-6.6-5.16s-5.85,2.16-6.6,5.16H5.76v1.22h1.26
	c-0.01,0.14-0.01,0.29-0.01,0.43v4.64H5.76v1.22h1.25v5.07H5.76v1.22h1.25v5.07H5.76v1.22h1.25v5.07H5.76v1.22h1.25v4.46
	C7.01,44.1,6.11,45,5,45h-1.5C2.4,45,1.5,44.1,1.5,42.99V13.82C1.5,7.03,7.03,1.5,13.82,1.5c6.79,0,12.32,5.53,12.32,12.32v29.17
	c0,1.11-0.9,2.01-2.01,2.01h-1.5c-1.11,0-2.01-0.9-2.01-2.01V38.53z M19.13,19.67v5.07H8.51v-5.07H19.13z M19.13,25.96v5.07H8.51
	v-5.07H19.13z M19.13,32.25v5.07H8.51v-5.07H19.13z"/>
</svg>
