<?xml version="1.0" encoding="utf-8"?>
<!-- Generator: Adobe Illustrator 24.0.2, SVG Export Plug-In . SVG Version: 6.00 Build 0)  -->
<svg version="1.1" id="Слой_1" xmlns="http://www.w3.org/2000/svg" xmlns:xlink="http://www.w3.org/1999/xlink" x="0px" y="0px"
	 viewBox="0 0 122 122" style="enable-background:new 0 0 122 122;" xml:space="preserve">
<style type="text/css">
	.st0{fill:#4B7DBF;}
	.st1{fill:url(#SVGID_1_);}
	.st2{fill:url(#SVGID_2_);}
	.st3{fill:url(#SVGID_3_);}
	.st4{fill:url(#SVGID_4_);}
	.st5{fill:#FFFFFF;}
	.st6{fill:url(#SVGID_5_);}
	.st7{fill:url(#SVGID_6_);}
	.st8{fill:url(#SVGID_7_);}
	.st9{fill:#2585E5;}
	.st10{fill:url(#SVGID_8_);}
	.st11{fill:#E9414B;}
</style>
<g>
	<path class="st0" d="M61,122C27.36,122,0,94.64,0,61S27.36,0,61,0s61,27.36,61,61S94.64,122,61,122z M61,1C27.92,1,1,27.92,1,61
		s26.92,60,60,60s60-26.92,60-60S94.08,1,61,1z"/>
</g>
<linearGradient id="SVGID_1_" gradientUnits="userSpaceOnUse" x1="84.8178" y1="102.2536" x2="37.1822" y2="19.7463">
	<stop  offset="0" style="stop-color:#2585E5"/>
	<stop  offset="1" style="stop-color:#5BA3EB"/>
</linearGradient>
<circle class="st1" cx="61" cy="61" r="47.63"/>
<g>
	<path class="st5" d="M77.02,34.3H38.75c-2.45,0-4.45,2-4.45,4.45v21.36c0,2.03,1.37,3.8,3.34,4.31c0.07,0.02,0.15,0.03,0.22,0.03
		c0.4,0,0.76-0.27,0.86-0.67c0.12-0.48-0.16-0.96-0.64-1.08c-1.18-0.3-2-1.37-2-2.59V43.2h37.38c0.49,0,0.89-0.4,0.89-0.89
		s-0.4-0.89-0.89-0.89H36.08v-2.67c0-1.47,1.2-2.67,2.67-2.67h38.27c1.47,0,2.67,1.2,2.67,2.67v8.01H42.31
		c-0.49,0-0.89,0.4-0.89,0.89c0,0.49,0.4,0.89,0.89,0.89h37.38v6.23c0,0.49,0.4,0.89,0.89,0.89s0.89-0.4,0.89-0.89V38.75
		C81.47,36.3,79.47,34.3,77.02,34.3L77.02,34.3z M77.02,34.3"/>
	<path class="st5" d="M75.24,51.21h-7.12c-0.49,0-0.89,0.4-0.89,0.89c0,0.49,0.4,0.89,0.89,0.89h7.12c0.49,0,0.89-0.4,0.89-0.89
		C76.13,51.61,75.73,51.21,75.24,51.21L75.24,51.21z M75.24,51.21"/>
	<path class="st5" d="M62.78,51.21h-4.45c-0.49,0-0.89,0.4-0.89,0.89c0,0.49,0.4,0.89,0.89,0.89h4.45c0.49,0,0.89-0.4,0.89-0.89
		C63.67,51.61,63.27,51.21,62.78,51.21L62.78,51.21z M62.78,51.21"/>
	<path class="st5" d="M83.25,57.44H44.98c-2.45,0-4.45,2-4.45,4.45v21.36c0,2.45,2,4.45,4.45,4.45h38.27c2.45,0,4.45-2,4.45-4.45
		V61.89C87.7,59.44,85.7,57.44,83.25,57.44L83.25,57.44z M85.92,83.25c0,1.47-1.2,2.67-2.67,2.67H44.98c-1.47,0-2.67-1.2-2.67-2.67
		V61.89c0-1.47,1.2-2.67,2.67-2.67h38.27c1.47,0,2.67,1.2,2.67,2.67V83.25z M85.92,83.25"/>
	<path class="st5" d="M75.64,65.84c-2.01,0-3.91,0.77-5.34,2.13c-1.43-1.37-3.33-2.13-5.34-2.13c-4.28,0-7.76,3.48-7.76,7.76
		c0,4.28,3.48,7.76,7.76,7.76c2.01,0,3.91-0.77,5.34-2.13c1.43,1.37,3.33,2.13,5.34,2.13c4.28,0,7.76-3.48,7.76-7.76
		C83.4,69.32,79.92,65.84,75.64,65.84L75.64,65.84z M75.64,79.57c-1.81,0-3.5-0.81-4.65-2.22c-0.17-0.21-0.42-0.33-0.69-0.33
		c-0.27,0-0.52,0.12-0.69,0.33c-1.14,1.41-2.84,2.22-4.65,2.22c-3.3,0-5.98-2.68-5.98-5.98c0-3.3,2.68-5.98,5.98-5.98
		c1.81,0,3.5,0.81,4.65,2.22c0.34,0.42,1.05,0.42,1.38,0c1.14-1.41,2.84-2.22,4.65-2.22c3.3,0,5.98,2.68,5.98,5.98
		C81.62,76.89,78.94,79.57,75.64,79.57L75.64,79.57z M75.64,79.57"/>
	<path class="st5" d="M75.87,72.83l-1.78-1.78c-0.35-0.35-0.91-0.35-1.26,0c-0.35,0.35-0.35,0.91,0,1.26l0.26,0.26h-6.75
		c-0.31,0-0.59,0.16-0.76,0.42c-0.16,0.26-0.18,0.59-0.04,0.87l0.89,1.78c0.16,0.31,0.47,0.49,0.8,0.49c0.13,0,0.27-0.03,0.4-0.09
		c0.44-0.22,0.62-0.75,0.4-1.19l-0.25-0.49h7.46c0.36,0,0.69-0.22,0.82-0.55C76.2,73.47,76.12,73.08,75.87,72.83L75.87,72.83z
		 M75.87,72.83"/>
	<path class="st5" d="M52.1,69.01h-4.45c-1.47,0-2.67,1.2-2.67,2.67v4.45c0,1.47,1.2,2.67,2.67,2.67h4.45c1.47,0,2.67-1.2,2.67-2.67
		v-4.45C54.77,70.21,53.57,69.01,52.1,69.01L52.1,69.01z M48.54,77.02h-0.89c-0.49,0-0.89-0.4-0.89-0.89v-0.89h1.78V77.02z
		 M48.54,73.46h-1.78v-1.78c0-0.49,0.4-0.89,0.89-0.89h0.89V73.46z M52.99,76.13c0,0.49-0.4,0.89-0.89,0.89h-1.78v-2.67h2.67V76.13z
		 M52.99,72.57h-2.67v-1.78h1.78c0.49,0,0.89,0.4,0.89,0.89V72.57z M52.99,72.57"/>
	<path class="st5" d="M53.88,61h-7.12c-0.49,0-0.89,0.4-0.89,0.89s0.4,0.89,0.89,0.89h7.12c0.49,0,0.89-0.4,0.89-0.89
		S54.37,61,53.88,61L53.88,61z M53.88,61"/>
	<path class="st5" d="M59.22,61h-1.78c-0.49,0-0.89,0.4-0.89,0.89s0.4,0.89,0.89,0.89h1.78c0.49,0,0.89-0.4,0.89-0.89
		S59.71,61,59.22,61L59.22,61z M59.22,61"/>
</g>
</svg>
