<?xml version="1.0" encoding="utf-8"?>
<!-- Generator: Adobe Illustrator 24.0.2, SVG Export Plug-In . SVG Version: 6.00 Build 0)  -->
<svg version="1.1" id="Слой_1" xmlns="http://www.w3.org/2000/svg" xmlns:xlink="http://www.w3.org/1999/xlink" x="0px" y="0px"
	 viewBox="0 0 122 122" style="enable-background:new 0 0 122 122;" xml:space="preserve">
<style type="text/css">
	.st0{fill:#4B7DBF;}
	.st1{fill:url(#SVGID_1_);}
	.st2{fill:url(#SVGID_2_);}
	.st3{fill:url(#SVGID_3_);}
	.st4{fill:url(#SVGID_4_);}
	.st5{fill:#FFFFFF;}
	.st6{fill:url(#SVGID_5_);}
	.st7{fill:url(#SVGID_6_);}
	.st8{fill:url(#SVGID_7_);}
	.st9{fill:#2585E5;}
	.st10{fill:url(#SVGID_8_);}
	.st11{fill:#E9414B;}
</style>
<g>
	<path class="st0" d="M61,122C27.36,122,0,94.64,0,61S27.36,0,61,0s61,27.36,61,61S94.64,122,61,122z M61,1C27.92,1,1,27.92,1,61
		s26.92,60,60,60s60-26.92,60-60S94.08,1,61,1z"/>
</g>
<linearGradient id="SVGID_1_" gradientUnits="userSpaceOnUse" x1="84.8177" y1="102.2538" x2="37.1821" y2="19.7465">
	<stop  offset="0" style="stop-color:#2585E5"/>
	<stop  offset="1" style="stop-color:#5BA3EB"/>
</linearGradient>
<circle class="st1" cx="61" cy="61" r="47.63"/>
<g>
	<circle class="st5" cx="50.12" cy="74.49" r="1.09"/>
	<path class="st5" d="M82.12,53.82l6.41-6.41c0.27-0.27,0.38-0.66,0.29-1.03c-0.09-0.37-0.37-0.67-0.74-0.78l-15.61-4.82
		c-1.41-4.52-5.59-7.63-10.38-7.63c-4.46,0-8.44,2.72-10.09,6.81L33.92,45.6c-0.36,0.11-0.64,0.41-0.73,0.78
		c-0.09,0.37,0.02,0.76,0.29,1.03l6.58,6.58l-4.15,6.92c-0.17,0.28-0.2,0.63-0.09,0.94c0.11,0.31,0.36,0.55,0.68,0.65l6.02,2.01
		v16.73c0,0.45,0.28,0.86,0.71,1.02c3.68,1.38,17.35,6.51,17.43,6.53c0.22,0.08,0.46,0.09,0.7,0.01c0,0,0.01,0,0.01,0l19.58-6.53
		c0.44-0.15,0.74-0.56,0.74-1.03V64.06l6.42-2.02c0.36-0.11,0.64-0.41,0.73-0.78c0.09-0.37-0.02-0.76-0.29-1.03L82.12,53.82z
		 M72.97,44.03c0-0.28-0.01-0.55-0.03-0.83l12.78,3.94l-5.43,5.43l-8.87-2.96C72.42,47.94,72.97,46,72.97,44.03z M53.86,41.2
		c1.21-3.51,4.52-5.87,8.23-5.87c4,0,7.48,2.71,8.44,6.59c0.17,0.69,0.26,1.4,0.26,2.12c0,2.02-0.67,3.91-1.94,5.48
		c-1.66,2.05-4.13,3.22-6.76,3.22c-2.85,0-5.52-1.4-7.15-3.74c-1.02-1.46-1.55-3.17-1.55-4.96C53.39,43.06,53.54,42.11,53.86,41.2z
		 M36.28,47.14l15.04-4.69c-0.08,0.52-0.12,1.05-0.12,1.58c0,1.75,0.41,3.45,1.21,4.98l-10.7,3.57L36.28,47.14z M38.46,60.86
		l3.44-5.73l17.47,5.82l-3.44,5.73C54.06,66.06,40.46,61.53,38.46,60.86z M59.91,86.19l-15.23-5.71V65.23
		c11.98,3.97,11.4,3.85,11.73,3.85c0.37,0,0.73-0.19,0.93-0.53l2.57-4.28V86.19z M61,59.2l-16.14-5.38l8.79-2.93
		c2.06,2.53,5.15,4.02,8.44,4.02c3.04,0,5.9-1.25,7.95-3.45l7.1,2.37L61,59.2z M79.49,80.45l-17.4,5.8v-22.8l3.86,4.82
		c0.28,0.35,0.75,0.49,1.18,0.36l12.37-3.89V80.45z M67.18,66.33l-4.35-5.44l17.46-5.82l5.43,5.44L67.18,66.33z"/>
	<path class="st5" d="M54.61,74.91c-0.56-0.21-1.19,0.07-1.4,0.64c-0.21,0.56,0.07,1.19,0.64,1.4l2.42,0.91
		c0.56,0.21,1.19-0.08,1.4-0.64c0.21-0.56-0.07-1.19-0.64-1.4L54.61,74.91z"/>
	<path class="st5" d="M57.03,80.46l-6.53-2.45c-0.56-0.21-1.19,0.07-1.4,0.64c-0.21,0.56,0.07,1.19,0.64,1.4l6.53,2.45
		c0.13,0.05,0.25,0.07,0.38,0.07c0.44,0,0.86-0.27,1.02-0.71C57.88,81.3,57.59,80.67,57.03,80.46z"/>
	<path class="st5" d="M60.23,48.06c0.42,0.42,1.11,0.42,1.54,0l6.53-6.53c0.42-0.42,0.42-1.11,0-1.54c-0.42-0.42-1.11-0.42-1.54,0
		L61,45.76l-1.41-1.41c-0.42-0.42-1.11-0.42-1.54,0c-0.42,0.42-0.42,1.11,0,1.54L60.23,48.06z"/>
</g>
</svg>
