<?xml version="1.0" encoding="utf-8"?>
<!-- Generator: Adobe Illustrator 24.0.2, SVG Export Plug-In . SVG Version: 6.00 Build 0)  -->
<svg version="1.1" id="Слой_1" xmlns="http://www.w3.org/2000/svg" xmlns:xlink="http://www.w3.org/1999/xlink" x="0px" y="0px"
	 viewBox="0 0 122 122" style="enable-background:new 0 0 122 122;" xml:space="preserve">
<style type="text/css">
	.st0{fill:#4B7DBF;}
	.st1{fill:url(#SVGID_1_);}
	.st2{fill:url(#SVGID_2_);}
	.st3{fill:url(#SVGID_3_);}
	.st4{fill:url(#SVGID_4_);}
	.st5{fill:#FFFFFF;}
	.st6{fill:url(#SVGID_5_);}
	.st7{fill:url(#SVGID_6_);}
	.st8{fill:url(#SVGID_7_);}
	.st9{fill:#2585E5;}
	.st10{fill:url(#SVGID_8_);}
	.st11{fill:#E9414B;}
</style>
<g>
	<path class="st0" d="M61,122C27.36,122,0,94.64,0,61S27.36,0,61,0s61,27.36,61,61S94.64,122,61,122z M61,1C27.92,1,1,27.92,1,61
		s26.92,60,60,60s60-26.92,60-60S94.08,1,61,1z"/>
</g>
<linearGradient id="SVGID_1_" gradientUnits="userSpaceOnUse" x1="84.8177" y1="102.2538" x2="37.1821" y2="19.7465">
	<stop  offset="0" style="stop-color:#2585E5"/>
	<stop  offset="1" style="stop-color:#5BA3EB"/>
</linearGradient>
<circle class="st1" cx="61" cy="61" r="47.63"/>
<g>
	<path class="st5" d="M55.01,46.82h0.93c1.18,0,1.18-1.77,0-1.77H55.9v-2.4h2.44c0.11,0.37,0.46,0.61,0.84,0.6
		c0.49,0,0.89-0.39,0.89-0.88v-0.6c0-0.49-0.4-0.89-0.89-0.89h-4.17c-0.49,0-0.88,0.4-0.88,0.89v4.17
		C54.13,46.43,54.52,46.82,55.01,46.82z"/>
	<path class="st5" d="M55.02,54.91h4.17c0.49,0,0.88-0.4,0.88-0.88v-4.17c0-0.49-0.4-0.88-0.88-0.88h-4.17
		c-0.49,0-0.88,0.4-0.88,0.88v4.17C54.13,54.51,54.53,54.91,55.02,54.91z M55.9,50.74h2.4v2.4h-2.4V50.74z"/>
	<path class="st5" d="M55.01,62.99h0.93c1.18,0,1.18-1.77,0-1.77H55.9v-2.4h2.39c0.02,1.16,1.75,1.16,1.78,0v-0.85
		c0-0.5-0.4-0.9-0.89-0.92h-4.17c-0.49,0.02-0.88,0.42-0.88,0.92v4.17C54.13,62.62,54.53,63.01,55.01,62.99z"/>
	<path class="st5" d="M57.83,43.77c-0.83-0.83-2.08,0.42-1.25,1.25L58,46.44c0.35,0.35,0.91,0.35,1.25,0l3.22-3.22
		c0.83-0.83-0.42-2.08-1.25-1.25v0l-2.59,2.59L57.83,43.77z"/>
	<path class="st5" d="M61.21,58.3l-2.59,2.59l-0.79-0.79c-0.83-0.83-2.08,0.42-1.25,1.25L58,62.77c0.35,0.35,0.91,0.35,1.25,0
		l3.22-3.22C63.3,58.72,62.05,57.47,61.21,58.3z"/>
	<path class="st5" d="M64.73,44.8h5.56c1.18,0,1.18-1.77,0-1.77h-5.56C63.55,43.03,63.55,44.8,64.73,44.8z"/>
	<path class="st5" d="M64.73,52.89h5.56c1.18,0,1.18-1.77,0-1.77h-5.56C63.55,51.12,63.55,52.89,64.73,52.89z"/>
	<path class="st5" d="M64.73,60.97h5.56c1.18,0,1.18-1.77,0-1.77h-5.56C63.55,59.2,63.55,60.97,64.73,60.97z"/>
	<path class="st5" d="M84.65,50.1c-0.9-1.02-2.18-1.59-3.61-1.59H75.1V37.87c0-2.1-1.7-3.81-3.8-3.81h-3.15
		c-0.37-1.33-1.58-2.26-2.96-2.27h-3.36H60.1c-1.38,0.01-2.59,0.94-2.96,2.27h-3.15c-2.1,0.01-3.79,1.72-3.78,3.81v10.63h-8.35
		l-0.46-3.41c-0.38-2.87-2.32-5.11-4.41-5.11h-2.84c-0.56,0-1.02,0.46-1.02,1.02s0.46,1.02,1.02,1.02H37c0.92,0,2.14,1.43,2.4,3.34
		l4.56,34.17c0.18,1.37,0.89,2.65,1.99,3.61c0.81,0.71,1.77,1.19,2.79,1.39l0.77,0.15l-0.37,0.69c-0.42,0.77-0.64,1.64-0.64,2.51
		c0,2.91,2.37,5.28,5.28,5.28c2.91,0,5.28-2.37,5.28-5.28c0-0.85-0.2-1.66-0.58-2.41l-0.43-0.84h10.22l-0.43,0.84
		c-0.39,0.75-0.58,1.56-0.58,2.41c0,2.91,2.37,5.28,5.28,5.28s5.28-2.37,5.28-5.28c0-0.85-0.2-1.66-0.58-2.41l-0.43-0.84h5.11
		c0.56,0,1.02-0.46,1.02-1.02c0-0.56-0.46-1.02-1.02-1.02h-32.1c-1.83,0-3.57-1.53-3.82-3.34l-0.42-3.15h32.08
		c1.38,0,2.75-0.53,3.85-1.49c1.1-0.96,1.81-2.25,1.99-3.62l2.28-17.12C85.93,52.47,85.54,51.12,84.65,50.1z M72.51,84.64
		c1.79,0,3.24,1.46,3.24,3.24c0,1.79-1.46,3.24-3.24,3.24s-3.24-1.46-3.24-3.24C69.27,86.09,70.73,84.64,72.51,84.64z M53.76,84.64
		c1.79,0,3.24,1.46,3.24,3.24c0,1.79-1.46,3.24-3.24,3.24c-1.79,0-3.24-1.46-3.24-3.24C50.52,86.09,51.97,84.64,53.76,84.64z
		 M58.81,34.84c0-0.34,0.14-0.67,0.38-0.91c0.24-0.24,0.57-0.38,0.91-0.38h5.14c0.71,0,1.28,0.57,1.28,1.28v0.09
		c0,0.34-0.14,0.67-0.38,0.91c-0.24,0.24-0.57,0.38-0.91,0.38h-5.14c-0.71,0-1.28-0.57-1.28-1.28V34.84z M51.98,37.87
		c-0.01-0.54,0.2-1.05,0.58-1.44c0.38-0.38,0.89-0.6,1.43-0.61h3.18c0.39,1.29,1.58,2.16,2.92,2.15h5.1
		c1.34,0.01,2.53-0.86,2.92-2.15h3.18c1.12,0.01,2.03,0.92,2.03,2.04v25.53c0,0.53-0.22,1.04-0.6,1.42
		c-0.38,0.37-0.9,0.58-1.43,0.57H53.99c-0.53,0.01-1.04-0.2-1.42-0.57c-0.38-0.37-0.59-0.88-0.59-1.42V37.87z M83.73,53.62
		l-2.28,17.12c-0.24,1.81-1.99,3.34-3.82,3.34H45.28l-3.14-23.53h8.07v12.86c0,1,0.4,1.96,1.1,2.67c0.71,0.71,1.67,1.1,2.67,1.09
		H71.3c1,0.01,1.97-0.38,2.68-1.09c0.71-0.7,1.12-1.67,1.12-2.67V50.55h5.93c0.84,0,1.57,0.32,2.08,0.89
		C83.62,52.01,83.84,52.79,83.73,53.62z"/>
</g>
</svg>
