<?xml version="1.0" encoding="utf-8"?>
<!-- Generator: Adobe Illustrator 24.0.2, SVG Export Plug-In . SVG Version: 6.00 Build 0)  -->
<svg version="1.1" id="Слой_1" xmlns="http://www.w3.org/2000/svg" xmlns:xlink="http://www.w3.org/1999/xlink" x="0px" y="0px"
	 viewBox="0 0 46.5 45.8" style="enable-background:new 0 0 46.5 45.8;" xml:space="preserve">
<style type="text/css">
	.st0{fill:#4B7DBF;}
	.st1{fill:url(#SVGID_1_);}
	.st2{fill:url(#SVGID_2_);}
	.st3{fill:#FFFFFF;}
	.st4{fill:url(#SVGID_3_);}
	.st5{fill:url(#SVGID_4_);}
	.st6{fill:url(#SVGID_5_);}
	.st7{fill:#2585E5;}
</style>
<g>
	<path class="st3" d="M20.12,27.74l7.95-7.15c0,0,0,0,0.01,0l4.48-4.03c0.86-0.79,1.09-2.03,0.66-3.06l7.66-6.02
		c0.12,0.06,0.26,0.09,0.4,0.09c0.21,0,0.42-0.07,0.59-0.2l4.27-3.37c0.41-0.32,0.48-0.92,0.16-1.33l-1.8-2.29
		C44.31,0.13,44.04,0,43.75,0c-0.21,0-0.42,0.07-0.59,0.2l-4.27,3.37c-0.2,0.16-0.33,0.38-0.36,0.63c-0.01,0.11-0.01,0.23,0.02,0.34
		L11.73,25.63c-0.41,0.32-0.66,0.78-0.72,1.3c-0.06,0.52,0.09,1.02,0.42,1.42l0.49,0.6l-0.16,0.43c-0.03,0.09-0.11,0.21-0.26,0.26
		c-0.02,0.01-0.04,0.01-0.06,0.02l-2.83,1.19c-0.06,0.03-0.12,0.06-0.18,0.11l-2.39,2.05c-0.02,0.01-0.04,0.02-0.05,0.03l-5.32,4.6
		c-0.78,0.67-0.89,1.82-0.26,2.62l3.78,4.81c0.36,0.46,0.91,0.73,1.5,0.73c0.03,0,0.07,0,0.1,0c0.61-0.03,1.18-0.36,1.51-0.88
		l5.4-8.2l1.17-0.2c0.69-0.12,1.26-0.63,1.46-1.31l0.6-2.07l1.48-0.42c2.04-0.58,3.26-2.64,2.79-4.71L20.12,27.74z M43.68,1.48
		l1.34,1.7l-3.69,2.91l-0.89-1.12L40,4.38L43.68,1.48z M17.03,31.45l-0.68,0.19l0.2-0.7l2.41-2.16
		C19.01,29.99,18.23,31.11,17.03,31.45z M18.95,27.01C18.95,27.01,18.95,27.01,18.95,27.01l-3.43,3.08
		c-0.09,0.08-0.16,0.19-0.19,0.31l-1.29,4.45c-0.06,0.19-0.22,0.34-0.41,0.37l-1.28,0.22c-0.29,0.05-0.54,0.22-0.7,0.46l-5.46,8.3
		c0,0,0,0.01-0.01,0.01c-0.1,0.16-0.27,0.26-0.46,0.27c-0.19,0.01-0.37-0.07-0.49-0.22l-3.78-4.81c-0.19-0.25-0.16-0.6,0.08-0.8
		l5.08-4.38c0.02-0.01,0.04-0.02,0.06-0.03l2.55-2.2l2.71-1.14c0.51-0.17,0.9-0.55,1.09-1.06l0.29-0.79c0,0,0,0,0,0l-0.01-0.6
		l-0.79-0.87l-0.04-0.04c-0.1-0.12-0.15-0.28-0.13-0.44c0.02-0.16,0.1-0.3,0.22-0.4L39.3,5.64l0.68,0.86l-8.11,6.38l0,0.88
		c0.39,0.56,0.31,1.35-0.2,1.81l-4.13,3.71c0,0,0,0-0.01,0L18.95,27.01z"/>
	<path class="st3" d="M4.64,7.35c0.17,0.13,0.38,0.2,0.59,0.2c0.14,0,0.27-0.03,0.4-0.09l7.66,6.02c-0.44,1.03-0.2,2.27,0.66,3.06
		l2.82,2.54l1.06-0.83l-2.99-2.68c-0.5-0.47-0.59-1.25-0.2-1.81l-0.48-1.27L6.52,6.5L7.2,5.64l13.33,10.48l1.07-0.84L7.95,4.54
		c0.03-0.11,0.03-0.22,0.02-0.34C7.94,3.95,7.82,3.73,7.62,3.57L3.34,0.2C3.17,0.07,2.97,0,2.75,0C2.46,0,2.19,0.13,2.01,0.36
		L0.2,2.65c-0.32,0.41-0.25,1.01,0.16,1.33L4.64,7.35z M2.82,1.48L6.5,4.38L6.05,4.96L5.16,6.08L1.47,3.18L2.82,1.48z"/>
	<path class="st3" d="M40.51,33.05c-0.02-0.01-0.04-0.02-0.05-0.03l-2.39-2.06c-0.05-0.04-0.11-0.08-0.18-0.11l-2.83-1.19
		c-0.02-0.01-0.04-0.02-0.06-0.02c-0.16-0.05-0.23-0.17-0.26-0.26l-0.16-0.43l0.49-0.6c0.33-0.4,0.48-0.91,0.42-1.42
		c-0.06-0.52-0.31-0.98-0.72-1.3l-5.02-3.95l-1,0.9l5.2,4.09c0.13,0.1,0.21,0.24,0.22,0.4c0.02,0.16-0.03,0.32-0.13,0.44l-0.04,0.04
		l-0.95,1.05l0.15,0.43c0,0,0,0,0,0l0.29,0.79c0.18,0.51,0.58,0.9,1.09,1.06l2.71,1.14l2.55,2.2c0.02,0.01,0.04,0.02,0.06,0.03
		l5.08,4.38c0.24,0.2,0.27,0.56,0.08,0.8l-3.78,4.81c-0.12,0.15-0.29,0.23-0.49,0.22c-0.19-0.01-0.36-0.11-0.46-0.27
		c0,0,0-0.01-0.01-0.01l-5.46-8.3c-0.16-0.24-0.42-0.41-0.7-0.46l-1.28-0.22c-0.2-0.03-0.36-0.18-0.41-0.37l-1.29-4.45
		c-0.03-0.12-0.1-0.23-0.19-0.31l-3.42-3.08c0,0,0,0,0,0l-1.86-1.67l-0.99,0.89l1.69,1.51l-0.06,0.28
		c-0.47,2.06,0.75,4.13,2.79,4.71l1.48,0.42l0.6,2.07c0.2,0.67,0.77,1.19,1.46,1.31l1.17,0.2l5.4,8.2c0.33,0.52,0.89,0.85,1.51,0.88
		c0.03,0,0.07,0,0.1,0c0.58,0,1.14-0.27,1.5-0.73l3.78-4.81c0.63-0.81,0.52-1.96-0.26-2.62L40.51,33.05z M29.47,31.45
		c-1.2-0.34-1.98-1.46-1.92-2.67l2.41,2.16l0.2,0.7L29.47,31.45z"/>
</g>
</svg>
