<svg version="1.1" id="Слой_1" xmlns="http://www.w3.org/2000/svg" xmlns:xlink="http://www.w3.org/1999/xlink" x="0px" y="0px"
	 viewBox="0 0 122 122" style="enable-background:new 0 0 122 122;" xml:space="preserve">
<style type="text/css">
	.st0{fill:#4B7DBF;}
	.st1{fill:url(#SVGID_1_);}
	.st2{fill:url(#SVGID_2_);}
	.st3{fill:#FFFFFF;}
	.st4{fill:url(#SVGID_3_);}
	.st5{fill:url(#SVGID_4_);}
	.st6{fill:url(#SVGID_5_);}
	.st7{fill:#2585E5;}
</style>
<g>
	<path class="st0" d="M61,122C27.36,122,0,94.64,0,61S27.36,0,61,0s61,27.36,61,61S94.64,122,61,122z M61,1C27.92,1,1,27.92,1,61
		s26.92,60,60,60s60-26.92,60-60S94.08,1,61,1z"/>
</g>
<circle class="st3" cx="61" cy="61" r="47.63"/>
<g>
	<g>
		<path class="st7" d="M70.69,56.35l-0.5-1.64c-1,0.3-2.04,0.45-3.08,0.45h-1.82v1.72h1.82C68.32,56.88,69.52,56.7,70.69,56.35
			L70.69,56.35z M70.69,56.35"/>
		<rect x="73.87" y="80.04" class="st7" width="1.72" height="6.86"/>
		<path class="st7" d="M70.44,78.33h7.72v10.3h1.72v-3.43h1.72v-1.72h-1.72v-10.3h-1.72v3.43h-7.72V78.33z M70.44,78.33"/>
		<rect x="65.29" y="41.43" class="st7" width="1.72" height="1.72"/>
		<rect x="68.72" y="43.15" class="st7" width="3.43" height="1.72"/>
		<rect x="53.28" y="67.17" class="st7" width="1.72" height="1.72"/>
		<rect x="59.28" y="73.18" class="st7" width="1.72" height="1.72"/>
		<rect x="59.28" y="80.9" class="st7" width="5.15" height="1.72"/>
		<rect x="61.86" y="84.33" class="st7" width="3.43" height="1.72"/>
		<rect x="70.44" y="71.46" class="st7" width="5.15" height="1.72"/>
		<rect x="77.3" y="68.03" class="st7" width="1.72" height="1.72"/>
		<rect x="81.59" y="74.89" class="st7" width="1.72" height="1.72"/>
		<rect x="40.41" y="82.62" class="st7" width="1.72" height="1.72"/>
		<path class="st7" d="M80.81,64.81l-2.52-0.8L79,60.48c0.05-0.25-0.02-0.51-0.18-0.71c-0.16-0.2-0.41-0.31-0.66-0.31h-3.43
			c0.94-1.25,1.52-2.73,1.67-4.29h0.04c1.71,0,3.16-1.26,3.4-2.96c0.24-1.7-0.81-3.31-2.46-3.77c0.17-0.66,0.15-1.35-0.08-2v-3.28
			c0-3.32-2.69-6.01-6.01-6.01h-6.86c-3.32,0-6.01,2.69-6.01,6.01v3.28c-0.22,0.64-0.25,1.34-0.08,2c-1.65,0.47-2.7,2.08-2.46,3.77
			c0.24,1.7,1.68,2.96,3.4,2.96h0.04c0.15,1.56,0.73,3.04,1.67,4.29h-3.43c-0.26,0-0.5,0.12-0.66,0.31
			c-0.16,0.2-0.23,0.46-0.18,0.71l0.68,3.38l-2.92,0.36c-1,0.1-1.99,0.35-2.92,0.72v-1.71c0-1.14-0.92-2.06-2.06-2.06h-2.04
			l-0.19-3.48c-0.03-0.45-0.4-0.81-0.86-0.81V38c0-0.47-0.38-0.86-0.86-0.86h-3.43c-0.47,0-0.86,0.38-0.86,0.86v27.45h-5.15
			c-0.47,0-0.86,0.38-0.86,0.86v18.02c0,2.37,1.92,4.29,4.29,4.29h13.73c0.47,0,0.86-0.38,0.86-0.86v-3.43c0-0.02,0-0.03,0-0.05
			c0-0.01,0-0.02,0-0.03c0-0.03-0.01-0.07-0.01-0.1v0c-0.01-0.03-0.02-0.06-0.03-0.1c0-0.01-0.01-0.01-0.01-0.02
			c-0.01-0.03-0.02-0.05-0.03-0.08c0,0,0-0.01-0.01-0.01l-2.32-4.64l4.13-4.07v13.39h1.72v-10.3h7.72v-1.72h-7.72v-3.43
			c0-0.23-0.09-0.45-0.25-0.61c-0.16-0.16-0.38-0.25-0.61-0.25v0h-4.29v1.72h2.2l-3.7,3.66l-1.64-3.27l0.95-0.47
			c0.29-0.15,0.47-0.44,0.47-0.77V70.6c0-0.47-0.38-0.86-0.86-0.86c-0.49,0-0.96-0.17-1.32-0.49l0.26-0.29
			c0.04-0.05,0.09-0.1,0.14-0.15c0.02-0.02,0.04-0.04,0.06-0.06c1.48-1.61,3.51-2.61,5.68-2.83c0.01,0,0.01,0,0.02,0l3.43-0.42
			l1.67,1.67h-3.08v1.72h4.79l1.46,1.46l1.21-1.21l-4.96-4.96l-0.6-3.01h4.1v3.43c0,0.26,0.12,0.51,0.32,0.67l3.97,3.17v4.73h-4.29
			v1.72h4.29v13.73h1.72v-6.01h1.72V80.9h-1.72V68.44l3.97-3.17c0.2-0.16,0.32-0.41,0.32-0.67v-3.43h4.1l-0.6,3.01l-4.96,4.96
			l1.21,1.21l4.78-4.78l2.82,0.9c0.05,0.02,0.1,0.03,0.15,0.03c1.16,0.15,2.24,0.68,3.05,1.52h-2.83v1.72h3.94
			c0.23,0.6,0.35,1.23,0.35,1.87v7.57h-3.43v1.72h3.43v7.72h1.72v-17C86.73,68.19,84.2,65.29,80.81,64.81L80.81,64.81z M49.5,62.88
			c0.19,0,0.34,0.15,0.34,0.34v1.88l-1.21,1.21h-0.88l-0.19-3.43H49.5z M44.7,38.86v18.02h-1.72V38.86H44.7z M36.98,75.75h5.25
			l0.34,2.57h-5.6V75.75z M36.98,67.17h5.15c0.47,0,0.86,0.38,0.86,0.86v5.15c0,0.41-0.29,0.76-0.68,0.84h0
			c-0.06,0.01-0.11,0.02-0.17,0.02h-5.15V67.17z M39.55,86.91c-1.42,0-2.57-1.15-2.57-2.57h1.72v-1.72h-1.72v-2.57h5.83l0.92,6.86
			H39.55z M52.42,86.91h-6.97l-0.23-1.72h7.2V86.91z M47.36,74.42l4.53,9.05h-6.9L44,76c0.68-0.75,0.96-1.78,0.74-2.77l-0.04-0.18
			v-5.03c0-1.07-0.66-2.02-1.65-2.4l-0.06-0.27v-6.77h2.62l0.48,8.63l0.05,0.88c0,0.01,0,0.02,0,0.04c0.05,0.52,0.22,1.03,0.49,1.48
			c0.03,0.06,0.06,0.11,0.1,0.16c0.52,0.81,1.33,1.38,2.27,1.59v1.28l-1.24,0.62C47.32,73.48,47.15,74,47.36,74.42L47.36,74.42z
			 M71.39,48.87c-2.33-0.39-4.72-0.39-7.05,0l-2.35,0.39c-0.52,0.09-1.06-0.07-1.45-0.43c-0.39-0.36-0.61-0.87-0.57-1.4h15.81
			c0.03,0.53-0.18,1.05-0.57,1.4c-0.39,0.36-0.93,0.51-1.45,0.43L71.39,48.87z M78.16,51.73c0,0.95-0.77,1.71-1.72,1.72v-3.42
			c0,0,0.01-0.01,0.01-0.01C77.4,50.02,78.16,50.79,78.16,51.73L78.16,51.73z M61.86,39.72c0.74-0.56,1.65-0.86,2.57-0.86h6.86
			c0.93,0,1.83,0.3,2.57,0.86h-3.43v1.72h4.79c0.24,0.54,0.36,1.12,0.36,1.72h-1.72v1.72h1.72v0.86H60.14v-2.57h3.43v-1.72H60.5
			C60.8,40.76,61.27,40.16,61.86,39.72L61.86,39.72z M58.07,52.94c-0.49-0.49-0.64-1.22-0.37-1.87c0.26-0.64,0.89-1.06,1.58-1.06
			l0.01,0.01v3.42C58.83,53.44,58.39,53.26,58.07,52.94L58.07,52.94z M61,54.3v-3.37c0.42,0.08,0.85,0.09,1.27,0.02l0.52-0.09
			c-0.15,0.43-0.07,0.91,0.22,1.26c0.29,0.35,0.75,0.52,1.2,0.44c0.45-0.07,0.83-0.38,0.99-0.81c0.16-0.43,0.09-0.91-0.19-1.26
			c1.89-0.28,3.81-0.28,5.7,0c-0.28,0.36-0.36,0.84-0.19,1.26c0.16,0.43,0.54,0.73,0.99,0.81c0.45,0.07,0.91-0.1,1.2-0.45
			c0.29-0.35,0.38-0.83,0.22-1.26l0.52,0.09c0.42,0.1,0.85,0.09,1.27-0.02v3.37c0.01,1.97-0.85,3.85-2.34,5.15h-0.24
			c-0.45,0-0.82,0.35-0.85,0.79c-0.1,0.06-0.19,0.11-0.28,0.15c-0.01,0-0.02,0.01-0.02,0.01c-1.96,1.01-4.3,1.01-6.26,0
			c-0.01,0-0.01-0.01-0.02-0.01c-0.09-0.04-0.19-0.1-0.28-0.15c-0.03-0.45-0.41-0.79-0.85-0.79h-0.24
			C61.85,58.16,60.99,56.28,61,54.3L61,54.3z M64.43,62.16c2.19,0.96,4.68,0.96,6.86,0v2.02l-3.43,2.75l-3.43-2.75V62.16z
			 M64.43,62.16"/>
	</g>
</g>
</svg>
