<?xml version="1.0" encoding="utf-8"?>
<!-- Generator: Adobe Illustrator 24.0.2, SVG Export Plug-In . SVG Version: 6.00 Build 0)  -->
<svg version="1.1" id="Слой_1" xmlns="http://www.w3.org/2000/svg" xmlns:xlink="http://www.w3.org/1999/xlink" x="0px" y="0px"
	 viewBox="0 0 122 122" style="enable-background:new 0 0 122 122;" xml:space="preserve">
<style type="text/css">
	.st0{fill:#4B7DBF;}
	.st1{fill:url(#SVGID_1_);}
	.st2{fill:url(#SVGID_2_);}
	.st3{fill:url(#SVGID_3_);}
	.st4{fill:#FFFFFF;}
	.st5{fill:url(#SVGID_4_);}
	.st6{fill:url(#SVGID_5_);}
</style>
<g>
	<path class="st0" d="M61,122C27.36,122,0,94.64,0,61S27.36,0,61,0s61,27.36,61,61S94.64,122,61,122z M61,1C27.92,1,1,27.92,1,61
		s26.92,60,60,60s60-26.92,60-60S94.08,1,61,1z"/>
</g>
<linearGradient id="SVGID_1_" gradientUnits="userSpaceOnUse" x1="84.8177" y1="102.2538" x2="37.1821" y2="19.7465">
	<stop  offset="0" style="stop-color:#2585E5"/>
	<stop  offset="1" style="stop-color:#5BA3EB"/>
</linearGradient>
<circle class="st1" cx="61" cy="61" r="47.63"/>
<g>
	<path class="st4" d="M50.5,44.63c-0.47,0-0.86,0.38-0.86,0.86c0,1.04-0.84,1.88-1.88,1.88c-1.04,0-1.88-0.84-1.88-1.88
		c0-1.04,0.84-1.88,1.88-1.88c0.47,0,0.86-0.38,0.86-0.86c0-0.47-0.38-0.86-0.86-0.86c-1.98,0-3.59,1.61-3.59,3.59
		c0,1.98,1.61,3.59,3.59,3.59c1.98,0,3.59-1.61,3.59-3.59C51.36,45.01,50.97,44.63,50.5,44.63L50.5,44.63z M50.5,44.63"/>
	<path class="st4" d="M50.5,54.67c-0.47,0-0.86,0.38-0.86,0.86c0,1.04-0.84,1.88-1.88,1.88c-1.04,0-1.88-0.84-1.88-1.88
		c0-1.04,0.84-1.88,1.88-1.88c0.47,0,0.86-0.38,0.86-0.86c0-0.47-0.38-0.86-0.86-0.86c-1.98,0-3.59,1.61-3.59,3.59
		c0,1.98,1.61,3.59,3.59,3.59c1.98,0,3.59-1.61,3.59-3.59C51.36,55.05,50.97,54.67,50.5,54.67L50.5,54.67z M50.5,54.67"/>
	<path class="st4" d="M60.54,56.49h-6.39c-0.47,0-0.86,0.38-0.86,0.86c0,0.47,0.38,0.86,0.86,0.86h6.39c0.47,0,0.86-0.38,0.86-0.86
		C61.4,56.88,61.02,56.49,60.54,56.49L60.54,56.49z M60.54,56.49"/>
	<path class="st4" d="M60.54,52.84h-6.39c-0.47,0-0.86,0.38-0.86,0.86c0,0.47,0.38,0.86,0.86,0.86h6.39c0.47,0,0.86-0.38,0.86-0.86
		C61.4,53.22,61.02,52.84,60.54,52.84L60.54,52.84z M60.54,52.84"/>
	<path class="st4" d="M58.72,66.53h-4.56c-0.47,0-0.86,0.38-0.86,0.86c0,0.47,0.38,0.86,0.86,0.86h4.56c0.47,0,0.86-0.38,0.86-0.86
		C59.57,66.92,59.19,66.53,58.72,66.53L58.72,66.53z M58.72,66.53"/>
	<path class="st4" d="M60.54,62.88h-6.39c-0.47,0-0.86,0.38-0.86,0.86c0,0.47,0.38,0.86,0.86,0.86h6.39c0.47,0,0.86-0.38,0.86-0.86
		C61.4,63.27,61.02,62.88,60.54,62.88L60.54,62.88z M60.54,62.88"/>
	<path class="st4" d="M68.76,46.45H54.15c-0.47,0-0.86,0.38-0.86,0.86c0,0.47,0.38,0.86,0.86,0.86h14.61c0.47,0,0.86-0.38,0.86-0.86
		C69.62,46.83,69.23,46.45,68.76,46.45L68.76,46.45z M68.76,46.45"/>
	<path class="st4" d="M65.11,42.8H54.15c-0.47,0-0.86,0.38-0.86,0.86c0,0.47,0.38,0.86,0.86,0.86h10.95c0.47,0,0.86-0.38,0.86-0.86
		C65.96,43.18,65.58,42.8,65.11,42.8L65.11,42.8z M65.11,42.8"/>
	<path class="st4" d="M50.5,64.71c-0.47,0-0.86,0.38-0.86,0.86c0,1.04-0.84,1.88-1.88,1.88c-1.04,0-1.88-0.84-1.88-1.88
		c0-1.04,0.84-1.88,1.88-1.88c0.47,0,0.86-0.38,0.86-0.86c0-0.47-0.38-0.86-0.86-0.86c-1.98,0-3.59,1.61-3.59,3.59
		c0,1.98,1.61,3.59,3.59,3.59c1.98,0,3.59-1.61,3.59-3.59C51.36,65.09,50.97,64.71,50.5,64.71L50.5,64.71z M50.5,64.71"/>
	<path class="st4" d="M72.41,33.67H41.37c-1.48,0-2.68,1.2-2.68,2.68v38.34c0,1.48,1.2,2.68,2.68,2.68h15.52
		c0.47,0,0.86-0.38,0.86-0.86c0-0.47-0.38-0.86-0.86-0.86H41.37c-0.53,0-0.97-0.44-0.97-0.97V36.35c0-0.53,0.44-0.97,0.97-0.97
		h31.04c0.53,0,0.97,0.44,0.97,0.97v28.3c0,0.47,0.38,0.86,0.86,0.86c0.47,0,0.86-0.38,0.86-0.86v-28.3
		C75.09,34.87,73.89,33.67,72.41,33.67L72.41,33.67z M72.41,33.67"/>
	<path class="st4" d="M80.49,68.38c-0.8-0.08-1.59,0.15-2.22,0.62c-0.5-0.84-1.36-1.44-2.34-1.54c-0.8-0.08-1.59,0.15-2.22,0.62
		c-0.5-0.84-1.36-1.44-2.34-1.54c-0.61-0.06-1.21,0.06-1.75,0.33v-10.9c0-0.88-0.38-1.73-1.03-2.33c-0.66-0.59-1.54-0.88-2.43-0.79
		c-1.58,0.16-2.82,1.59-2.82,3.25v10.93l-2.52,2.52c-1.34,1.34-1.88,3.23-1.44,5.07l1.91,8.12c0.77,3.29,3.67,5.59,7.05,5.59h7.72
		c4,0,7.25-3.25,7.25-7.25v-9.45C83.31,69.96,82.07,68.53,80.49,68.38L80.49,68.38z M81.6,81.08c0,3.05-2.48,5.53-5.53,5.53h-7.72
		c-2.58,0-4.8-1.75-5.39-4.27l-1.91-8.12c-0.3-1.26,0.07-2.56,0.99-3.47l1.31-1.3v2.95c0,0.47,0.38,0.86,0.86,0.86
		c0.47,0,0.86-0.38,0.86-0.86v-16.3c0-0.8,0.56-1.48,1.28-1.55c0.41-0.04,0.8,0.09,1.11,0.36c0.3,0.27,0.47,0.66,0.47,1.06v15.06
		c0,0.47,0.38,0.86,0.86,0.86c0.47,0,0.86-0.38,0.86-0.86v-1.37c0-0.4,0.17-0.79,0.47-1.06c0.3-0.27,0.7-0.4,1.11-0.36
		c0.72,0.07,1.28,0.75,1.28,1.55v2.15c0,0.47,0.38,0.86,0.86,0.86c0.47,0,0.86-0.38,0.86-0.86v-1.37c0-0.4,0.17-0.79,0.47-1.06
		c0.3-0.27,0.7-0.4,1.11-0.36c0.72,0.07,1.28,0.75,1.28,1.55v2.15c0,0.47,0.38,0.86,0.86,0.86c0.47,0,0.86-0.38,0.86-0.86V71.5
		c0-0.4,0.17-0.79,0.47-1.06c0.3-0.27,0.7-0.4,1.11-0.36c0.72,0.07,1.28,0.75,1.28,1.55V81.08z M81.6,81.08"/>
</g>
</svg>
