<?xml version="1.0" encoding="utf-8"?>
<!-- Generator: Adobe Illustrator 24.0.2, SVG Export Plug-In . SVG Version: 6.00 Build 0)  -->
<svg version="1.1" id="Слой_1" xmlns="http://www.w3.org/2000/svg" xmlns:xlink="http://www.w3.org/1999/xlink" x="0px" y="0px"
	 viewBox="0 0 122 122" style="enable-background:new 0 0 122 122;" xml:space="preserve">
<style type="text/css">
	.st0{fill:#4B7DBF;}
	.st1{fill:url(#SVGID_1_);}
	.st2{fill:url(#SVGID_2_);}
	.st3{fill:url(#SVGID_3_);}
	.st4{fill:#FFFFFF;}
	.st5{fill:url(#SVGID_4_);}
	.st6{fill:url(#SVGID_5_);}
</style>
<g>
	<path class="st0" d="M61,122C27.36,122,0,94.64,0,61S27.36,0,61,0s61,27.36,61,61S94.64,122,61,122z M61,1C27.92,1,1,27.92,1,61
		s26.92,60,60,60s60-26.92,60-60S94.08,1,61,1z"/>
</g>
<linearGradient id="SVGID_1_" gradientUnits="userSpaceOnUse" x1="84.8177" y1="102.2538" x2="37.1821" y2="19.7465">
	<stop  offset="0" style="stop-color:#2585E5"/>
	<stop  offset="1" style="stop-color:#5BA3EB"/>
</linearGradient>
<circle class="st1" cx="61" cy="61" r="47.63"/>
<g>
	<path class="st4" d="M53.59,72.13c-0.06-0.02-0.13-0.03-0.19-0.03l-0.27-0.01l0.19-0.2c1.11-1.17,1.72-2.7,1.72-4.3v-5.23
		c0-0.04,0-0.08-0.01-0.12c0.01-0.12,0.01-0.21,0.01-0.3v-3.31c0-0.48-0.39-0.87-0.87-0.87h-6.66c-2.74,0-4.96,2.23-4.96,4.96v4.86
		c0,1.61,0.61,3.13,1.72,4.3l0.19,0.2l-0.27,0.01c-0.07,0-0.13,0.01-0.19,0.03c-4.66,0.42-8.29,4.4-8.29,9.06v4.24
		c0,0.48,0.39,0.87,0.87,0.87h24.45c0.48,0,0.87-0.39,0.87-0.87v-4.24c0-4.66-3.63-8.64-8.27-9.06L53.59,72.13z M44.28,62.72
		c0-1.78,1.45-3.23,3.23-3.23h5.79v2.44c0,1.23-1,2.24-2.24,2.24h-6.78V62.72z M44.28,67.58V65.9h6.78c0.72,0,1.43-0.2,2.05-0.57
		l0.19-0.11v2.36c0,2.49-2.02,4.51-4.51,4.51C46.3,72.09,44.28,70.07,44.28,67.58z M51.25,73.83l-2.46,2.46l-2.46-2.46H51.25z
		 M53.72,73.89c3.66,0.47,6.43,3.6,6.43,7.3v3.38H37.44v-2.24h4.25c0.48,0,0.87-0.39,0.87-0.87s-0.39-0.87-0.87-0.87h-4.22
		l0.01-0.14c0.34-3.38,3.02-6.14,6.39-6.56l0.06-0.01l4.25,4.25c0.33,0.33,0.9,0.32,1.23,0l4.25-4.25L53.72,73.89z"/>
	<path class="st4" d="M78.01,50.07c-0.06-0.02-0.12-0.03-0.19-0.03l-0.27-0.01l0.19-0.2c1.11-1.17,1.72-2.7,1.72-4.3V40.3
		c0-0.04,0-0.08-0.01-0.12c0.01-0.12,0.01-0.21,0.01-0.3v-3.31c0-0.48-0.39-0.87-0.87-0.87h-6.66c-2.74,0-4.96,2.23-4.96,4.96v4.86
		c0,1.61,0.61,3.13,1.72,4.3l0.19,0.2l-0.27,0.01c-0.07,0-0.13,0.01-0.19,0.03c-4.66,0.42-8.29,4.4-8.29,9.06v4.24
		c0,0.48,0.39,0.87,0.87,0.87h7.99c0.48,0,0.87-0.39,0.87-0.87s-0.39-0.87-0.87-0.87h-7.12v-3.37c0-3.7,2.76-6.83,6.43-7.3
		l0.06-0.01l4.25,4.25c0.33,0.33,0.9,0.33,1.23,0l4.25-4.25l0.06,0.01c3.66,0.47,6.43,3.6,6.43,7.3v3.37h-7.44
		c-0.48,0-0.87,0.39-0.87,0.87s0.39,0.87,0.87,0.87h8.31c0.48,0,0.87-0.39,0.87-0.87v-4.24c0-4.66-3.63-8.64-8.27-9.06L78.01,50.07z
		 M68.7,40.66c0-1.78,1.45-3.23,3.23-3.23h5.79v2.44c0,1.23-1,2.24-2.24,2.24H68.7V40.66z M73.21,54.23l-2.46-2.46h4.93L73.21,54.23
		z M73.21,50.03c-2.49,0-4.51-2.02-4.51-4.51v-1.68h6.78c0.72,0,1.43-0.2,2.05-0.57l0.19-0.11v2.36
		C77.72,48.01,75.7,50.03,73.21,50.03z"/>
	<path class="st4" d="M73.82,63.99c0.16-0.16,0.25-0.39,0.25-0.61c0-0.23-0.09-0.45-0.25-0.61c-0.16-0.16-0.39-0.25-0.61-0.25
		c-0.23,0-0.45,0.09-0.61,0.25s-0.25,0.39-0.25,0.61s0.09,0.45,0.25,0.61C72.92,64.31,73.5,64.31,73.82,63.99z"/>
	<path class="st4" d="M40.54,54.12h12.47c1.98,0,3.74-1.18,4.48-3l0.03-0.08h3.91c0.35,0,0.67-0.21,0.8-0.54
		c0.14-0.33,0.06-0.7-0.19-0.95l-4.19-4.19v-4.83c0-2.67-2.17-4.84-4.84-4.84H40.54c-2.67,0-4.84,2.17-4.84,4.84v8.74
		C35.7,51.95,37.87,54.12,40.54,54.12z M37.44,40.54c0-1.71,1.39-3.1,3.1-3.1h12.47c1.71,0,3.1,1.39,3.1,3.1v5.19
		c0,0.23,0.09,0.45,0.25,0.61l2.96,2.96h-2.45c-0.41,0-0.75,0.28-0.85,0.67c-0.32,1.42-1.57,2.4-3.02,2.4H40.54
		c-1.71,0-3.1-1.39-3.1-3.1V40.54z"/>
	<path class="st4" d="M81.46,67.88H68.99c-1.98,0-3.74,1.18-4.48,3l-0.03,0.08h-3.91c-0.35,0-0.67,0.21-0.8,0.54
		c-0.14,0.33-0.06,0.7,0.19,0.95l4.19,4.19v4.83c0,2.67,2.17,4.84,4.84,4.84h12.47c2.67,0,4.84-2.17,4.84-4.84v-8.74
		C86.3,70.05,84.13,67.88,81.46,67.88z M84.56,81.46c0,1.71-1.39,3.1-3.1,3.1H68.99c-1.71,0-3.1-1.39-3.1-3.1v-5.19
		c0-0.23-0.09-0.45-0.25-0.61l-2.96-2.96h2.45c0.41,0,0.75-0.28,0.85-0.67c0.32-1.42,1.57-2.41,3.02-2.41h12.47
		c1.71,0,3.1,1.39,3.1,3.1V81.46z"/>
	<path class="st4" d="M78.37,74.54l-2.73,2.73l-1.32-1.32c-0.16-0.16-0.38-0.25-0.61-0.25s-0.45,0.09-0.61,0.25
		c-0.34,0.34-0.34,0.89,0,1.23l1.93,1.93c0.33,0.33,0.9,0.33,1.23,0l3.34-3.34c0.16-0.16,0.25-0.38,0.25-0.61
		c0-0.23-0.09-0.45-0.25-0.61C79.27,74.21,78.7,74.21,78.37,74.54z"/>
	<path class="st4" d="M45.41,43.27c0.48,0,0.87-0.39,0.87-0.87c0-0.44,0.18-0.85,0.5-1.16c0.29-0.28,0.67-0.43,1.08-0.43
		c0.04,0,0.08,0,0.12,0c0.78,0.05,1.41,0.68,1.46,1.46c0.05,0.79-0.46,1.49-1.23,1.66c-0.72,0.16-1.22,0.78-1.22,1.51v0.53
		c0,0.48,0.39,0.87,0.87,0.87s0.87-0.39,0.87-0.87V45.6l0.09-0.03c1.49-0.45,2.46-1.85,2.35-3.41c-0.11-1.64-1.44-2.96-3.08-3.08
		c-0.93-0.06-1.82,0.25-2.5,0.88c-0.67,0.63-1.05,1.51-1.05,2.43C44.54,42.88,44.93,43.27,45.41,43.27z"/>
	<path class="st4" d="M47.86,48.92c-0.23,0-0.45,0.09-0.61,0.25c-0.16,0.16-0.25,0.38-0.25,0.61c0,0.23,0.09,0.45,0.25,0.61
		c0.32,0.32,0.9,0.32,1.23,0c0.16-0.16,0.25-0.39,0.25-0.61c0-0.23-0.09-0.45-0.25-0.61C48.31,49.01,48.09,48.92,47.86,48.92z"/>
	<path class="st4" d="M45.66,80.59c-0.23,0-0.45,0.09-0.61,0.25c-0.16,0.16-0.25,0.38-0.25,0.61c0,0.23,0.09,0.45,0.25,0.61
		c0.32,0.32,0.9,0.32,1.23,0c0.16-0.16,0.25-0.38,0.25-0.61c0-0.23-0.09-0.45-0.25-0.61C46.11,80.68,45.88,80.59,45.66,80.59z"/>
</g>
</svg>
