<?xml version="1.0" encoding="utf-8"?>
<!-- Generator: Adobe Illustrator 24.0.2, SVG Export Plug-In . SVG Version: 6.00 Build 0)  -->
<svg version="1.1" id="Слой_1" xmlns="http://www.w3.org/2000/svg" xmlns:xlink="http://www.w3.org/1999/xlink" x="0px" y="0px"
	 viewBox="0 0 122 122" style="enable-background:new 0 0 122 122;" xml:space="preserve">
<style type="text/css">
	.st0{fill:#4B7DBF;}
	.st1{fill:url(#SVGID_1_);}
	.st2{fill:url(#SVGID_2_);}
	.st3{fill:url(#SVGID_3_);}
	.st4{fill:#FFFFFF;}
	.st5{fill:url(#SVGID_4_);}
	.st6{fill:url(#SVGID_5_);}
</style>
<g>
	<path class="st0" d="M61,122C27.36,122,0,94.64,0,61S27.36,0,61,0s61,27.36,61,61S94.64,122,61,122z M61,1C27.92,1,1,27.92,1,61
		s26.92,60,60,60s60-26.92,60-60S94.08,1,61,1z"/>
</g>
<linearGradient id="SVGID_1_" gradientUnits="userSpaceOnUse" x1="84.8177" y1="102.2538" x2="37.1821" y2="19.7465">
	<stop  offset="0" style="stop-color:#2585E5"/>
	<stop  offset="1" style="stop-color:#5BA3EB"/>
</linearGradient>
<circle class="st1" cx="61" cy="61" r="47.63"/>
<g>
	<path class="st4" d="M75.22,37.75c-8.61-8.61-22.63-8.61-31.24,0c-4.17,4.17-6.47,9.72-6.47,15.62l0,31.42
		c0,1.58,0.62,3.07,1.73,4.18c2.31,2.31,6.06,2.31,8.37-0.01c1.07-1.07,1.67-2.47,1.72-3.96l2.11,2.11l16.3,0l2.11-2.11
		c0.05,1.5,0.66,2.9,1.73,3.97c2.31,2.31,6.06,2.31,8.37,0c0.72-0.72,1.22-1.6,1.49-2.57c1.01-0.33,1.96-0.89,2.76-1.69l0.29-0.29
		V74.42c0-1.26-0.34-2.5-0.99-3.58l-1.12-1.86l0-24.05l-0.29-0.29c-0.77-0.77-1.77-1.15-2.78-1.16
		C78.26,41.36,76.89,39.43,75.22,37.75L75.22,37.75z M72.91,38.35l-5.63,5.63c-4.46-3.65-10.92-3.65-15.39,0l-5.63-5.63
		C53.86,31.62,65.33,31.62,72.91,38.35L72.91,38.35z M69.83,78.81H49.36l0.05-19.11l20.37,0L69.83,78.81z M69.78,57.71H49.41
		l0.01-3.64h20.34L69.78,57.71z M69.67,52.08l-20.15,0c0.28-2.22,1.28-4.27,2.89-5.88c3.97-3.97,10.42-3.97,14.38,0
		C68.39,47.81,69.39,49.86,69.67,52.08L69.67,52.08z M47.35,84.8c0,1.04-0.41,2.03-1.16,2.77c-1.53,1.53-4.02,1.53-5.56,0
		c-0.74-0.74-1.15-1.73-1.15-2.78l0-31.42c0-5.11,1.91-9.91,5.36-13.64l5.63,5.63c-1.95,2.21-3.03,5.02-3.04,7.99l-0.06,23.63h-0.03
		v6.04l0.01,0.01L47.35,84.8z M52.27,85.14l-2.92-2.92l0-1.42h20.48l0,1.42l-2.92,2.92H52.27z M72.99,87.57
		c-0.74-0.74-1.15-1.72-1.15-2.77l0-1.76l0.01-0.01v-6.04h-0.03l-0.06-23.63c-0.01-2.98-1.09-5.78-3.04-7.99l5.63-5.63
		c1.19,1.29,2.2,2.71,3.01,4.26c-0.31,0.18-0.61,0.38-0.88,0.64l-0.29,0.29v24.05l-1.12,1.86c-0.65,1.08-0.99,2.32-0.99,3.58v10.01
		l0.29,0.29c1.33,1.33,3.06,2,4.8,2.03c-0.17,0.29-0.37,0.57-0.62,0.82C77.02,89.1,74.52,89.1,72.99,87.57L72.99,87.57z M80.4,69.53
		l1.4,2.33c0.46,0.77,0.71,1.66,0.71,2.56l0,9.17c-1.85,1.58-4.6,1.58-6.45,0l0-9.17c0-0.9,0.24-1.79,0.71-2.56l1.4-2.33l0-23.73
		c0.67-0.46,1.56-0.46,2.23,0L80.4,69.53z M80.4,69.53"/>
	<path class="st4" d="M53.27,76.29V62.22h1.99v14.06H53.27z M53.27,76.29"/>
	<path class="st4" d="M58.6,76.29l0-14.06h1.99v14.06L58.6,76.29z M58.6,76.29"/>
	<path class="st4" d="M63.92,76.29V62.22l1.99,0l0,14.06H63.92z M63.92,76.29"/>
</g>
</svg>
