<?xml version="1.0" encoding="utf-8"?>
<!-- Generator: Adobe Illustrator 24.0.2, SVG Export Plug-In . SVG Version: 6.00 Build 0)  -->
<svg version="1.1" id="Слой_1" xmlns="http://www.w3.org/2000/svg" xmlns:xlink="http://www.w3.org/1999/xlink" x="0px" y="0px"
	 viewBox="0 0 122 122" style="enable-background:new 0 0 122 122;" xml:space="preserve">
<style type="text/css">
	.st0{fill:#4B7DBF;}
	.st1{fill:url(#SVGID_1_);}
	.st2{fill:url(#SVGID_2_);}
	.st3{fill:#FFFFFF;}
	.st4{fill:url(#SVGID_3_);}
	.st5{fill:url(#SVGID_4_);}
	.st6{fill:url(#SVGID_5_);}
	.st7{fill:#2585E5;}
</style>
<g>
	<path class="st0" d="M61,122C27.36,122,0,94.64,0,61S27.36,0,61,0s61,27.36,61,61S94.64,122,61,122z M61,1C27.92,1,1,27.92,1,61
		s26.92,60,60,60s60-26.92,60-60S94.08,1,61,1z"/>
</g>
<circle class="st3" cx="61" cy="61" r="47.63"/>
<g>
	<path class="st7" d="M79.4,48.93H66.55l0.78-0.93c1.23-1.48,1.91-3.35,1.91-5.27c0-4.54-3.7-8.24-8.24-8.24s-8.24,3.7-8.24,8.24
		c0,1.92,0.68,3.79,1.91,5.27l0.78,0.93H42.6l-7.31,38.59h51.42L79.4,48.93z M54.79,42.72c0-3.42,2.78-6.21,6.21-6.21
		s6.21,2.78,6.21,6.21s-2.78,6.21-6.21,6.21S54.79,46.15,54.79,42.72z M44.29,50.96h33.43l6.54,34.52H37.74L44.29,50.96z"/>
	<polygon class="st7" points="59.65,62.48 57.7,62.48 51.85,68.31 51.85,62.48 50.41,62.48 50.41,74.02 51.85,74.02 51.85,70.02 
		53.81,68.11 57.97,74.02 59.89,74.02 54.82,67.14 	"/>
	<path class="st7" d="M68.97,62.69c-0.67-0.27-1.43-0.41-2.26-0.41c-1.15,0-2.17,0.24-3.05,0.71c-0.88,0.47-1.56,1.2-2.03,2.17
		c-0.47,0.97-0.71,2.03-0.71,3.15c0,1.13,0.24,2.17,0.71,3.08c0.47,0.91,1.18,1.62,2.1,2.1c1.61,0.84,3.69,0.98,5.55,0.28
		c0.79-0.3,1.57-0.75,2.31-1.34v-4.25l-4.84,0.01v1.27h3.42v2.25l-0.23,0.17c-0.31,0.23-0.73,0.45-1.24,0.65
		c-1.36,0.55-2.88,0.51-4.16-0.12c-0.7-0.35-1.22-0.86-1.58-1.58c-0.36-0.7-0.54-1.58-0.54-2.62c0-0.84,0.15-1.63,0.45-2.36
		c0.18-0.43,0.43-0.82,0.74-1.17c0.32-0.35,0.74-0.64,1.26-0.86c0.95-0.4,2.4-0.47,3.46-0.02c0.49,0.2,0.87,0.48,1.13,0.83
		c0.25,0.33,0.47,0.79,0.65,1.37l1.3-0.36c-0.2-0.75-0.49-1.38-0.86-1.84C70.17,63.33,69.64,62.95,68.97,62.69z"/>
</g>
</svg>
