<?xml version="1.0" encoding="utf-8"?>
<!-- Generator: Adobe Illustrator 24.0.2, SVG Export Plug-In . SVG Version: 6.00 Build 0)  -->
<svg version="1.1" id="_x31_" xmlns="http://www.w3.org/2000/svg" xmlns:xlink="http://www.w3.org/1999/xlink" x="0px" y="0px"
	 viewBox="0 0 519.33 253.21" style="enable-background:new 0 0 519.33 253.21;" xml:space="preserve">
<style type="text/css">
	.st0{fill-rule:evenodd;clip-rule:evenodd;fill:#001689;}
	.st1{fill-rule:evenodd;clip-rule:evenodd;fill:#FFFFFF;}
	.st2{fill-rule:evenodd;clip-rule:evenodd;fill:#CC003D;}
</style>
<g>
	<g>
		<g>
			<rect class="st0" width="251.58" height="253.21"/>
			<g>
				<path class="st1" d="M76.38,81.81c1.86,4.12,4.89,8.36,13.21,14.07c1.84,1.28,3.9,3.94,2.34,7.68
					c-1.58,3.74-4.5,9.05-2.76,11.12c1.76,2.07,8.03,3.15,13.12,1.09c0,0,1.07,3.24,2.94,5.31c0,0-0.88,1.79-3.81,0.88
					c0,0,1.07,2.66-0.4,5.52c0,0-3.42-0.59-4.88-3.75c0,0-1.38,2.46-4.12,3.35c0,0-2.25-1.17-1.75-5.72c0,0-1.67,4.05-6.75,4.73
					c0,0-2.94-3.73,0.87-8.76c0,0-2.74,2.46-7.71,1.28c0,0-0.79-2.55,3.7-6.1c0,0-5.09-0.2-7.04-4.53c0,0,2.15-2.66,7.42-2.07
					c0,0-4.88-1.09-5.96-6.99c0,0,3.52-2.26,9.1,1.38c0,0-0.99-1.86-3.33-3.73C78.24,94.7,75.39,89.48,76.38,81.81L76.38,81.81z"/>
				<path class="st1" d="M96.85,141.19c-0.75-0.99-1.3-1.98-1.7-2.93c0.87,7.16,1.18,11.99,5.02,16.63c0,0,2.32-3.1,0.83-10.64
					c-0.64-0.19-1.37-0.5-2.07-0.97c0,0,0.88,3.06,0.32,6.14C99.25,149.41,97.88,148.4,96.85,141.19z"/>
				<path class="st1" d="M90.2,140.45c-0.46-0.58-1.34-1.82-1.81-2.7c-0.32,4.16-1.41,15.1,2.23,18.53c0,0,2.5-1.84,3.37-17.81
					c-0.53,0.9-1.46,1.85-1.91,2.37c0,0,0.61,5.06-1.19,8.64C90.9,149.48,89.09,148.1,90.2,140.45z"/>
				<path class="st1" d="M81.52,148.81c3.05-3.69,3.98-14.75,3.98-14.75c0.42-0.29,0.85-0.6,1.29-0.94
					c0.15-0.14,0.33-0.29,0.49-0.44c0,0.4,0.02,0.82,0.06,1.24c-0.44,6.66-0.96,13.52-3.03,16.93c-2.02,3.35-5.74,5.08-5.74,5.08
					c-3.48-6.25,0.73-14.62,4.27-20.44c0.42-0.17,0.86-0.37,1.32-0.6C82.9,139.36,80.54,144.7,81.52,148.81z"/>
				<path class="st1" d="M72.86,129.62c-0.02,0.71,0.11,1.3,0.21,1.59c0.03,0.12,0.09,0.29,0.16,0.46
					c-2.92,2.88-5.09,5.64-9.41,11.69c-4.33,6.05-11.19,6.3-11.19,6.3c0.67-4.9,1.98-8.77,5.66-12.95
					c3.67-4.17,8.37-7.99,11.81-10.51c0.88,0.4,2.05,0.66,3.5,0.49c0.11-0.01,0.23-0.02,0.34-0.05c-0.46,0.61-0.74,1.22-0.88,1.79
					c-2.62,1.51-10.2,5.37-13.28,11.62C59.79,140.03,64.58,138.5,72.86,129.62z"/>
				<path class="st1" d="M67.43,123.52l0.28-0.52c0.11-0.17,0.2-0.33,0.31-0.47c-2.82,1.1-12.87,4.92-16.11,6.61
					c-3.26,1.7-7.96,5.55-10.52,13.37c0,0,6.78,0.61,12.37-4.05c5.6-4.67,12.12-11.17,14.9-13.23c-0.28-0.26-0.5-0.51-0.65-0.72
					c0,0-7.57,6.74-15.58,9.66c0,0,1.71-3.13,4.88-5.4C61.18,126.01,64.06,125.08,67.43,123.52z"/>
				<path class="st1" d="M61.68,118.89c0.11-0.27,0.22-0.52,0.34-0.76c-3.32,0.67-11.59,1.67-15.3,2.81
					c-3.7,1.15-10.39,3.87-14.36,11.5c0,0,5.83,1.81,16.83-3.4c11-5.21,14.45-6.3,16.55-6.86c-1.67-0.12-2.86-0.69-3.47-1.07
					c-4.39,1.97-10.26,4.29-16.08,4.45c0,0,2.86-2.04,5.89-3.33C55.34,120.87,58.94,119.61,61.68,118.89z"/>
				<path class="st1" d="M61.96,113.41c1.07,0.51,1.9,0.76,3.31,0.9c-0.76,0.5-1.49,1.14-2.14,1.99c-3.88,1.13-10.49,2.35-21.4,3.15
					c-10.89,0.78-16.71-1.23-16.71-1.23c3.8-2.34,9.85-4.71,13.95-5.51c4.09-0.8,14.85-0.71,19.57-1.36
					c0.05,0.06,0.62,0.52,1.55,1.09c-3.97,0.36-12.42,0.75-16.77,2.98C43.32,115.44,51.36,116.51,61.96,113.41z"/>
				<path class="st1" d="M61.14,107.1c0.55-0.33,1.21-0.65,2.03-0.96c-5.52-1.68-13.1-4.37-24.51-5.11
					c-8.36-0.55-14.39-0.07-17.52,0.74c0,0,7.62,5.4,16.32,7.3c8.72,1.91,15.79,0.71,20.96,0.75c0.33-0.51,0.72-1.1,1.33-1.67
					c-6.05,0.04-16.1-1.54-19.7-2.75C40.05,105.41,48.82,103.58,61.14,107.1z"/>
				<path class="st1" d="M61.11,100.57c0.03,0.16,0.68,3.29,4.29,5.02c-7.75-3.41-23.01-5.37-31.23-8.81
					c-11.09-4.64-13.12-10.43-13.12-10.43c9.6-0.26,17.36,2.1,23.35,3.95c7,2.15,17.67,6.17,21.4,7.84
					c-1.39,0.05-2.93,0.46-4.22,1.33c-5.21-2.01-7.64-2.87-12.37-4.2c-3.74-1.06-6.5-1.26-8.84-1.48c0,0,3.29,2.18,8.7,3.92
					C54.44,99.45,56.76,99.73,61.11,100.57z"/>
				<path class="st1" d="M60.53,92.06c0.31,0.55,1.22,1.87,1.59,2.39c-12.26-2.07-25.73-11.39-29.9-17.18
					c-4.16-5.78-2.99-14.41-2.99-14.41c4.04,0.81,12.83,8.44,15.1,10.74c2.28,2.29,9.14,9.02,13.9,12.77l1.48,4.34
					c-4.08-3.3-8.91-6.98-11.92-9.27c-2.32-1.76-5.79-4.26-9.25-5.44c0,0,3.18,4.17,5.75,6.2c2.96,2.36,5.98,4.4,8.45,5.76
					C54.95,89.19,56.08,89.88,60.53,92.06z"/>
				<path class="st1" d="M95.09,126.58c0.37-0.33,0.7-0.65,0.96-0.94c0.56,0.71,2.46,3.09,3.4,5.46c0.7,2.02,1.46,4.78,1.83,6.36
					c0.38,1.57,1.48,4.85,2.16,5.97c0,0-2.98,0.38-5.19-2.22c-2.17-2.55-2.9-5.12-3.24-7.74C94.72,131.4,94.82,128.55,95.09,126.58z
					"/>
				<path class="st1" d="M90.39,126.97c0.55,0.75,1.09,1.05,1.14,1.08l0.41,0.21l0.41-0.15c0.38-0.11,0.72-0.25,1.03-0.41
					c0.44,1.21,0.62,1.8,0.72,2.83c0.14,1.38,0.4,3.54-0.1,5.31c-0.62,2.15-1.91,3.47-2.61,4.29c0,0-1.96-2.16-2.51-3.94
					c-0.58-1.87-0.79-4.04-0.07-6.27C89.2,128.71,89.82,127.61,90.39,126.97z"/>
				<path class="st1" d="M83.66,127.18c2-0.27,3.51-0.99,4.65-1.83c0.25,0.71,0.65,1.66,0.36,3.01c-0.31,1.35-1.23,2.84-2.56,3.92
					c-2.03,1.61-4.71,3.14-7.69,2.68C78.42,134.96,77.73,132.7,83.66,127.18z"/>
				<path class="st1" d="M81.4,123.42c0.25,2,1.2,3.26,1.26,3.36c-0.69,0.84-3.2,5.17-8.43,4.45c0,0-1.43-2.96,2.07-5.31
					C78.65,124.33,79.78,124,81.4,123.42z"/>
				<path class="st1" d="M81.85,119.71c-1.39,0.35-3.21,0.49-5.43-0.03l-0.6-0.14l-0.19-0.59c-2.69,2.21-5.89,2.58-6.99,4.58
					c0,0,1.34,2.49,4.84,2.08c3.49-0.42,6.11-2.07,7.98-4.43C81.54,120.83,81.7,120.16,81.85,119.71z"/>
				<path class="st1" d="M75.82,116.61c0.49-0.74,0.83-1.89,1.87-3.05c-2.3-0.4-4.39-0.44-7.1,0.1c-3.22,0.6-6.5,1.37-8.15,6.31
					c0,0,2.06,1.77,5.82,1C71.46,120.29,74.23,118.92,75.82,116.61z"/>
				<path class="st1" d="M74.45,111.26c-0.81-0.71-1.56-1.62-2.09-2.82l-0.26-0.62c-2.79-1.14-5.7-1.73-8.56-0.67
					c-2.85,1.08-3.6,2.3-4.31,3.38c0,0,3.15,2.66,6.77,2.75C69.64,113.41,72.99,112.35,74.45,111.26z"/>
				<path class="st1" d="M75.29,105.49c0.48-0.18,1.02-0.35,1.62-0.48c-1.22-1.09-2.45-2.77-3.03-5.26c-1.3,0.3-4.34,0.3-5.67-0.21
					c-1.35-0.52-3.98-0.54-6.03,0.82c0,0,0.68,3.63,5.32,4.87C71.89,106.39,73.51,106.09,75.29,105.49z"/>
				<path class="st1" d="M73.62,98.42l0.61-0.39c0.09-0.06,1.13-0.7,2.9-0.84c-1.49-1.12-5.07-4.13-7.58-5.57
					c-2.77-1.55-7.34-3.61-9.66-3.92c0,0,2.18,5.76,4.71,8.09C67.25,98.2,69.09,99.09,73.62,98.42z"/>
				<path class="st1" d="M78.33,95.76c-1.13-1.45-2-3.46-2.65-5.84c-0.52-1.93-1.73-6.72-2.45-7.96c-0.71-1.25-3.29-5.58-8.31-6.94
					c0,0-1.34,5.67,1.19,10.13C68.29,89.02,72.77,93.09,78.33,95.76z"/>
				<path class="st1" d="M106.23,122.07c0.62,0.64,1.1,0.98,2.22,1.55c0,0,1.61,3.08-0.34,6.81c-1.95,3.72-3.58,7.52-4.37,9.63
					c0,0-1.04-0.16-2.2-5.98c-0.78-3.95-1.77-4.94-2.81-6.29c1.13,0.57,2.04,0.75,2.12,0.76l0.78,0.13l0.35-0.7
					c0.69-1.33,0.91-2.62,0.91-3.7c0-0.35-0.03-0.68-0.07-0.99c1.81,0.04,2.77-0.87,3.14-1.34c0.02-0.05,0.06-0.08,0.08-0.12
					L106.23,122.07z"/>
				<path class="st1" d="M63.51,77.4c-0.02,0.55-0.03,1.14-0.02,1.78l0.1,1.39c-2.97-3.81-6.52-8.4-9.91-12.65
					c-2.32-2.9-4.29-4.66-6.47-6.08c1.82,5.38,5.13,9.67,7.46,11.82c2.32,2.14,5.71,5.75,8.99,7.96l0.32,1.09
					c0.26,1,0.65,2.03,1.2,2.99c0.76,1.36,1.77,2.7,2.96,4c-0.95-0.48-2.05-0.99-3.16-1.46l-1.02-0.42
					c-9.06-4.83-18.02-14.84-21.66-21.81c-3.64-6.96-2.12-15.05-1.16-19.37c4.11,3.51,10.02,10.4,12.6,14.16
					c3.17,4.6,7.25,11.13,9.75,16.44L63.51,77.4z"/>
				<path class="st1" d="M190.43,107.1c-0.55-0.33-1.21-0.65-2.02-0.96c5.51-1.68,13.1-4.37,24.5-5.11
					c8.36-0.55,14.41-0.07,17.53,0.74c0,0-7.61,5.4-16.33,7.3c-8.71,1.91-15.78,0.71-20.95,0.75c-0.34-0.51-0.73-1.1-1.33-1.67
					c6.05,0.04,16.11-1.54,19.7-2.75C211.53,105.41,202.76,103.58,190.43,107.1z"/>
				<path class="st1" d="M190.47,100.57c-0.03,0.16-0.68,3.29-4.29,5.02c7.75-3.41,23.03-5.37,31.23-8.81
					c11.09-4.64,13.12-10.43,13.12-10.43c-9.6-0.26-17.36,2.1-23.35,3.95c-6.99,2.15-17.67,6.17-21.4,7.84
					c1.4,0.05,2.93,0.46,4.23,1.33c5.21-2.01,7.63-2.87,12.37-4.2c3.73-1.06,6.49-1.26,8.83-1.48c0,0-3.28,2.18-8.7,3.92
					C197.14,99.45,194.82,99.73,190.47,100.57z"/>
				<path class="st1" d="M191.05,92.06c-0.3,0.55-1.23,1.87-1.59,2.39c12.25-2.07,25.73-11.39,29.89-17.18
					c4.18-5.78,2.99-14.41,2.99-14.41c-4.05,0.81-12.83,8.44-15.11,10.74c-2.27,2.29-9.14,9.02-13.9,12.77l-1.48,4.34
					c4.07-3.3,8.91-6.98,11.93-9.27c2.31-1.76,5.78-4.26,9.24-5.44c0,0-3.18,4.17-5.75,6.2c-2.95,2.36-5.96,4.4-8.45,5.76
					C196.64,89.19,195.51,89.88,191.05,92.06z"/>
				<path class="st1" d="M188.08,77.4c0.02,0.55,0.03,1.14,0,1.78l-0.1,1.39c2.97-3.81,6.53-8.4,9.92-12.65
					c2.33-2.9,4.3-4.66,6.47-6.08c-1.84,5.38-5.13,9.67-7.47,11.82c-2.33,2.14-5.69,5.75-8.99,7.96l-0.32,1.09
					c-0.26,1-0.65,2.03-1.19,2.99c-0.77,1.36-1.77,2.7-2.97,4c0.96-0.48,2.05-0.99,3.15-1.46l1.02-0.42
					c9.06-4.83,18.03-14.84,21.66-21.81c3.62-6.96,2.13-15.05,1.17-19.37c-4.11,3.51-10.03,10.4-12.61,14.16
					c-3.17,4.6-7.23,11.13-9.75,16.44V77.4z"/>
				<g>
					<path class="st1" d="M75.07,132.4c-3.73,3.75-11.59,12.18-10.86,21.31c0,0,7.31-2.3,10.32-7.69c3.01-5.38,4.87-8.76,6.13-9.98
						c-0.81,0.1-1.62,0.1-2.41-0.03l-0.66-0.1c-1.86,3.4-5.53,8.96-8.84,10.9c0,0-0.85-4.5,8.88-13.63
						c0.13-0.37,0.33-0.81,0.61-1.28c-0.89,0.33-1.9,0.51-3.04,0.49L75.07,132.4z M75.07,132.4L75.07,132.4L75.07,132.4z"/>
				</g>
				<path class="st1" d="M175.2,81.81c-1.85,4.12-4.9,8.36-13.2,14.07c-1.86,1.28-3.91,3.94-2.35,7.68
					c1.56,3.74,4.5,9.05,2.73,11.12c-1.75,2.07-8.01,3.15-13.11,1.09c0,0-1.06,3.24-2.92,5.31c0,0,0.87,1.79,3.81,0.88
					c0,0-1.07,2.66,0.39,5.52c0,0,3.42-0.59,4.88-3.75c0,0,1.37,2.46,4.12,3.35c0,0,2.26-1.17,1.76-5.72c0,0,1.66,4.05,6.75,4.73
					c0,0,2.93-3.73-0.89-8.76c0,0,2.74,2.46,7.73,1.28c0,0,0.78-2.55-3.73-6.1c0,0,5.1-0.2,7.06-4.53c0,0-2.16-2.66-7.43-2.07
					c0,0,4.88-1.09,5.96-6.99c0,0-3.52-2.26-9.09,1.38c0,0,0.97-1.86,3.31-3.73C173.35,94.7,176.19,89.48,175.2,81.81z"/>
				<path class="st1" d="M154.74,141.19c0.74-0.99,1.29-1.98,1.71-2.93c-0.88,7.16-1.19,11.99-5.04,16.63c0,0-2.31-3.1-0.83-10.64
					c0.66-0.19,1.37-0.5,2.08-0.97c0,0-0.88,3.06-0.34,6.14C152.32,149.41,153.72,148.4,154.74,141.19z"/>
				<path class="st1" d="M161.38,140.45c0.46-0.58,1.35-1.82,1.81-2.7c0.32,4.16,1.41,15.1-2.24,18.53c0,0-2.5-1.84-3.38-17.81
					c0.53,0.9,1.46,1.85,1.9,2.37c0,0-0.6,5.06,1.21,8.64C160.68,149.48,162.49,148.1,161.38,140.45z"/>
				<path class="st1" d="M170.07,148.81c-3.08-3.69-3.99-14.75-3.99-14.75c-0.42-0.29-0.85-0.6-1.26-0.94
					c-0.18-0.14-0.35-0.29-0.51-0.44c0,0.4-0.01,0.82-0.05,1.24c0.43,6.66,0.97,13.52,3.02,16.93c2.02,3.35,5.73,5.08,5.73,5.08
					c3.49-6.25-0.72-14.62-4.25-20.44c-0.44-0.17-0.87-0.37-1.31-0.6C168.69,139.36,171.04,144.7,170.07,148.81z"/>
				<path class="st1" d="M178.71,129.62c0.03,0.71-0.11,1.3-0.2,1.59c-0.04,0.12-0.09,0.29-0.15,0.46
					c2.91,2.88,5.08,5.64,9.41,11.69c4.33,6.05,11.19,6.3,11.19,6.3c-0.66-4.9-1.98-8.77-5.66-12.95
					c-3.67-4.17-8.36-7.99-11.82-10.51c-0.89,0.4-2.04,0.66-3.5,0.49c-0.12-0.01-0.24-0.02-0.34-0.05c0.46,0.61,0.74,1.22,0.89,1.79
					c2.61,1.51,10.21,5.37,13.27,11.62C191.8,140.03,186.99,138.5,178.71,129.62z"/>
				<path class="st1" d="M184.16,123.52l-0.29-0.52c-0.1-0.17-0.19-0.33-0.3-0.47c2.82,1.1,12.87,4.92,16.11,6.61
					c3.25,1.7,7.94,5.55,10.49,13.37c0,0-6.77,0.61-12.36-4.05c-5.59-4.67-12.12-11.17-14.89-13.23c0.28-0.26,0.49-0.51,0.65-0.72
					c0,0,7.57,6.74,15.56,9.66c0,0-1.7-3.13-4.86-5.4C190.41,126.01,187.53,125.08,184.16,123.52z"/>
				<path class="st1" d="M189.89,118.89c-0.1-0.27-0.21-0.52-0.33-0.76c3.32,0.67,11.6,1.67,15.31,2.81
					c3.68,1.15,10.38,3.87,14.36,11.5c0,0-5.83,1.81-16.84-3.4c-11-5.21-14.44-6.3-16.53-6.86c1.66-0.12,2.85-0.69,3.47-1.07
					c4.39,1.97,10.26,4.29,16.08,4.45c0,0-2.88-2.04-5.89-3.33C196.23,120.87,192.63,119.61,189.89,118.89z"/>
				<path class="st1" d="M189.63,113.41c-1.08,0.51-1.91,0.76-3.31,0.9c0.77,0.5,1.5,1.14,2.15,1.99
					c3.87,1.13,10.47,2.35,21.38,3.15c10.9,0.78,16.71-1.23,16.71-1.23c-3.79-2.34-9.84-4.71-13.94-5.51
					c-4.11-0.8-14.86-0.71-19.58-1.36c-0.05,0.06-0.63,0.52-1.55,1.09c3.97,0.36,12.42,0.75,16.78,2.98
					C208.27,115.44,200.22,116.51,189.63,113.41z"/>
				<path class="st1" d="M156.49,126.58c-0.37-0.33-0.69-0.65-0.97-0.94c-0.56,0.71-2.45,3.09-3.37,5.46
					c-0.71,2.02-1.47,4.78-1.83,6.36c-0.39,1.57-1.5,4.85-2.18,5.97c0,0,2.99,0.38,5.2-2.22c2.17-2.55,2.9-5.12,3.26-7.74
					C156.85,131.4,156.77,128.55,156.49,126.58z"/>
				<path class="st1" d="M161.18,126.97c-0.55,0.75-1.08,1.05-1.13,1.08l-0.4,0.21l-0.43-0.15c-0.36-0.11-0.7-0.25-1.02-0.41
					c-0.44,1.21-0.6,1.8-0.72,2.83c-0.15,1.38-0.41,3.54,0.09,5.31c0.63,2.15,1.9,3.47,2.62,4.29c0,0,1.96-2.16,2.52-3.94
					c0.58-1.87,0.79-4.04,0.08-6.27C162.39,128.71,161.74,127.61,161.18,126.97z"/>
				<path class="st1" d="M167.93,127.18c-2-0.27-3.51-0.99-4.66-1.83c-0.25,0.71-0.65,1.66-0.35,3.01c0.29,1.35,1.22,2.84,2.57,3.92
					c2,1.61,4.7,3.14,7.68,2.68C173.17,134.96,173.86,132.7,167.93,127.18z"/>
				<path class="st1" d="M170.17,123.42c-0.24,2-1.19,3.26-1.27,3.36c0.7,0.84,3.21,5.17,8.47,4.45c0,0,1.4-2.96-2.07-5.31
					C172.92,124.33,171.8,124,170.17,123.42z"/>
				<path class="st1" d="M169.71,119.71c1.4,0.35,3.22,0.49,5.45-0.03l0.6-0.14l0.17-0.59c2.7,2.21,5.89,2.58,6.99,4.58
					c0,0-1.34,2.49-4.83,2.08c-3.49-0.42-6.13-2.07-7.99-4.43C170.04,120.83,169.89,120.16,169.71,119.71z"/>
				<path class="st1" d="M175.77,116.61c-0.5-0.74-0.85-1.89-1.89-3.05c2.32-0.4,4.4-0.44,7.1,0.1c3.22,0.6,6.51,1.37,8.16,6.31
					c0,0-2.08,1.77-5.83,1C180.12,120.29,177.35,118.92,175.77,116.61z"/>
				<path class="st1" d="M177.13,111.26c0.81-0.71,1.56-1.62,2.09-2.82l0.26-0.62c2.8-1.14,5.71-1.73,8.54-0.67
					c2.86,1.08,3.6,2.3,4.34,3.38c0,0-3.16,2.66-6.8,2.75C181.94,113.41,178.59,112.35,177.13,111.26z"/>
				<path class="st1" d="M176.29,105.49c-0.48-0.18-1.02-0.35-1.63-0.48c1.24-1.09,2.46-2.77,3.05-5.26c1.3,0.3,4.34,0.3,5.68-0.21
					c1.34-0.52,3.97-0.54,6.02,0.82c0,0-0.67,3.63-5.33,4.87C179.68,106.39,178.07,106.09,176.29,105.49z"/>
				<path class="st1" d="M177.96,98.42l-0.61-0.39c-0.09-0.06-1.13-0.7-2.91-0.84c1.51-1.12,5.06-4.13,7.6-5.57
					c2.76-1.55,7.32-3.61,9.67-3.92c0,0-2.19,5.76-4.74,8.09C184.34,98.2,182.49,99.09,177.96,98.42z"/>
				<path class="st1" d="M173.25,95.76c1.13-1.45,2-3.46,2.65-5.84c0.54-1.93,1.74-6.72,2.46-7.96c0.72-1.25,3.29-5.58,8.31-6.94
					c0,0,1.34,5.67-1.19,10.13C183.29,89.02,178.82,93.09,173.25,95.76z"/>
				<path class="st1" d="M145.37,122.07c-0.65,0.64-1.13,0.98-2.23,1.55c0,0-1.61,3.08,0.34,6.81c1.94,3.72,3.58,7.52,4.37,9.63
					c0,0,1.05-0.16,2.2-5.98c0.79-3.95,1.79-4.94,2.81-6.29c-1.13,0.57-2.03,0.75-2.11,0.76l-0.77,0.13l-0.36-0.7
					c-0.7-1.33-0.89-2.62-0.89-3.7c0-0.35,0.01-0.68,0.05-0.99c-1.81,0.04-2.77-0.87-3.13-1.34c-0.04-0.05-0.07-0.08-0.09-0.12
					L145.37,122.07z"/>
				<g>
					<path class="st1" d="M176.51,132.4c3.73,3.75,11.59,12.18,10.85,21.31c0,0-7.31-2.3-10.3-7.69c-3.02-5.38-4.86-8.76-6.13-9.98
						c0.8,0.1,1.61,0.1,2.41-0.03l0.67-0.1c1.85,3.4,5.52,8.96,8.83,10.9c0,0,0.84-4.5-8.88-13.63c-0.14-0.37-0.34-0.81-0.61-1.28
						c0.89,0.33,1.9,0.51,3.03,0.49L176.51,132.4z M176.51,132.4L176.51,132.4L176.51,132.4z"/>
				</g>
				<path class="st1" d="M120.08,59.52c0-0.67,2.56-1.23,5.71-1.23c3.15,0,5.71,0.56,5.71,1.23c0,0.67-2.55,1.22-5.71,1.22
					C122.64,60.74,120.08,60.18,120.08,59.52z"/>
				<path class="st1" d="M126.9,62.21c0,0.62-0.49,1.13-1.11,1.13c-0.62,0-1.13-0.51-1.13-1.13c0-0.62,0.51-1.13,1.13-1.13
					C126.41,61.08,126.9,61.59,126.9,62.21z"/>
				<path class="st1" d="M119.67,58.32c-1.89-4.55-3.17-7.92-3.12-9.04c0.03-0.68,0.84-1.18,1.61-1.42c0.75-0.24,1.42-0.29,1.92,0.1
					c0.99,0.76,1.9,6.91,2.25,9.47C121.37,57.61,120.79,57.74,119.67,58.32z"/>
				<path class="st1" d="M123.14,57.33c0.48-0.06,0.97-0.08,1.47-0.1c-0.3-2.44-1.14-6.51-1.63-8.11c-0.5-1.61-1.13-2.76-2.17-3.05
					c0,0,0.81,2.24,1.26,4.54C122.52,52.93,122.85,55.13,123.14,57.33z"/>
				<g>
					<path class="st1" d="M117.13,65.49c2.1-0.5,4.24-2.75,4.24-2.75C117.99,63.23,117.13,65.49,117.13,65.49L117.13,65.49
						L117.13,65.49z M120.27,65.28c-2.92,1.71-6.19,1.45-6.19,1.45c0.63-1.17,1.23-2.25,3.05-3.56c1.83-1.32,4.81-1.64,5.97-1.48
						C122.85,62.57,121.66,64.46,120.27,65.28z"/>
				</g>
				<g>
					<path class="st1" d="M109.37,70.11v-0.24c-2.87,0.37-6.25,0.22-6.25,0.22c0.17,1.07,0.62,1.89,1.37,2.38
						C104.68,70.14,109.37,70.11,109.37,70.11L109.37,70.11L109.37,70.11z M99.85,67.02c0,0,3.63,1.35,7.26,1.18
						c3.62-0.19,10.31-0.26,12.47-1.32c0,0-0.35,1.37-2.07,2.16c0,0,0.91,0,1.8,0.79c0,0-0.52,1.13-2.06,1.73
						c0,0,2.76,2.89,5.73,2.68c0,0-1.36,1.71-4.4,1.05c-3.03-0.66-4-2.36-4.52-3.02c0,0,0.39,1.63,0.21,2.29
						c0,0-1.33-0.08-2.37-1.39c0,0,0.75,1.31,0.91,2.42c0,0-0.84,0.1-2.33-0.79c0,0,0.31,0.82,0.37,1.76c0,0-3.5-1.12-5.2-2.73
						c0,0-0.02,1.1,0.06,1.73C105.7,75.55,100.27,75,99.85,67.02z"/>
				</g>
				<path class="st1" d="M99.01,67.58c0.14,1.73,0.58,3.43,1.18,4.64c0,0-2.14-1.62-2.66-2.99C96.99,67.86,96.87,66.92,99.01,67.58z
					"/>
				<g>
					<path class="st1" d="M94.72,74.14c0.51,0,0.91-0.39,0.91-0.89c0-0.5-0.4-0.9-0.91-0.9c-0.48,0-0.87,0.4-0.87,0.9
						C93.85,73.75,94.24,74.14,94.72,74.14L94.72,74.14L94.72,74.14z M99.96,73.09c1.43,0.66,2.71,2.21,2.71,2.21
						c-2.17,0.5-3.13,1.12-3.13,1.12c-4.15-2.95-7.57,0.02-7.57,0.02c-2.25-1.27-2.68-4.4-1.55-6.06c1.12-1.66,3.65-1.37,4.86-1.08
						C96.02,71.73,98.67,72.5,99.96,73.09z"/>
				</g>
				<path class="st1" d="M103.14,75.84c0,0,1.51,2.03,2.62,2.92c0,0-5.59-0.05-7,4.81c0,0-1.94-2.98-0.52-4.93
					C99.76,76.56,101.15,76.3,103.14,75.84z"/>
				<path class="st1" d="M109.27,77.05c0,0,1.81,0.54,2.41,0.69c0,0,0.02-1.05-0.02-1.56c0.54,0.13,1.22,0.31,1.8,0.37
					c0,0,1.8,4.05,3.21,5.68c0,0,0.08,0.9-0.7,2.26c0,0-1.02-2.39-2.85-4.31C112.08,79.11,111.41,78.56,109.27,77.05z"/>
				<path class="st1" d="M104.52,76.19c0.59,0.16,3.47,1.07,4.85,2.08c1.76,1.25,2.96,2.7,2.77,5.19c0,0-1.41-1.97-2.97-2.86
					C107.94,79.89,105.7,77.92,104.52,76.19z"/>
				<path class="st1" d="M104.56,57.88c0.53,0,1.56,0.26,1.56,1.11c0,0.87-1.33,2.96-1.69,3.88h-0.03c-0.35-0.92-1.7-3.01-1.7-3.88
					c0-0.86,1.04-1.11,1.57-1.11H104.56z"/>
				<path class="st1" d="M103.39,64.61c-0.25-1.21-0.73-4.36-1.46-5.06c-0.7-0.67-1.75-0.73-2.26-0.7
					c-0.53,0.03-1.07,0.57-0.86,1.28c0.21,0.73,2.52,4.21,2.82,4.65C102.17,64.68,102.06,64.72,103.39,64.61z"/>
				<path class="st1" d="M105.44,64.61c0.26-1.21,0.73-4.36,1.47-5.06c0.7-0.67,1.75-0.73,2.26-0.7c0.53,0.03,1.08,0.57,0.87,1.28
					c-0.23,0.73-2.54,4.21-2.85,4.65C106.67,64.68,106.77,64.72,105.44,64.61z"/>
				<polygon class="st1" points="106.93,53.65 105.13,53.65 105.13,51.65 103.67,51.65 103.67,53.65 101.85,53.65 101.85,54.92 
					103.67,54.92 103.67,57.27 105.13,57.27 105.13,54.92 106.93,54.92 				"/>
				<path class="st1" d="M85.08,66.61c0-0.4,0.02-0.78,0.08-1.16c0.14-0.98,0.15-1.81,0.04-2.51c-1.3,0.51-2.18,0.82-3.96,3.73
					C81.23,66.66,84.08,64.89,85.08,66.61z"/>
				<path class="st1" d="M87.56,71.2c0.04-0.72,0.51-3,1.11-4.6c0.73-1.98,0.3-4.84-0.58-6.58c-0.84-1.67-1.31-3.25-1.16-4.98
					c0,0-1.67,0.57-2.65,1.17c-0.15,2.01,1.01,4.03,1.57,5.17c0.66,1.35,0.52,3.12,0.38,4.2C85.97,67.42,86.34,69.37,87.56,71.2z"/>
				<path class="st1" d="M87.75,55.82c-0.07-0.23-0.07-0.87,0.06-1.12c0,0,2.66-2.6,4.9-3.04c1.41-0.3,2.27,0.33,2.7,0.68
					c0,0-0.78-0.09-1.97,0.89c-1.2,0.97-2.68,2.14-3.79,2.44C88.52,55.96,88.29,55.87,87.75,55.82z"/>
				<path class="st1" d="M95.63,52.53c0.99,1,1.84,2.07,1.82,3c-0.01,0.96-1.12,3.36-1.69,4.27c-0.58,0.91-1.43,2.11-1.33,3.56
					c0.05,0.72,0.56,1.47,1.15,2.09c0,0-3.26-0.78-3.66-2.8c-0.35-1.81,0.43-3.07,0.95-4.07c0.48-0.95,1.98-3.14,2.36-4.06
					C95.57,53.69,95.75,53,95.63,52.53z"/>
				<path class="st1" d="M114.64,75.32c0.64,2.32,1.75,4.5,2.84,6.21c0.98,1.57,1.6,4.09,1.51,4.95c0,0,1.47-3.26,0.73-5.57
					C119.13,79.12,117.55,76.45,114.64,75.32z"/>
				<path class="st1" d="M118.3,76.08c0,0,2.24,0.05,3.28,0.73c1.34,0.89,2.61,2.84,3.11,5.17c0,0-2.26-0.4-3.37-1.51
					C120.2,79.36,118.82,77.68,118.3,76.08z"/>
				<path class="st1" d="M106.75,80.15c-0.43,0.03-1.57,0.3-2.13,0.47c0,0,1.9,0.56,2.85,1.35c0.81,0.67,1.51,1.7,1.83,3.46
					c0.47,2.45,1.89,5.08,2.32,5.87l0.17-0.03c-0.26-1.68,0.78-5.18,1.06-5.68c0,0-1.51-0.95-2.21-1.93
					C110.13,82.91,109.23,81.7,106.75,80.15z"/>
				<path class="st1" d="M116.64,85.4c0.55,1.28,2.03,3.56,1.34,5.93c-0.69,2.38-2.23,3.39-3.18,5.41c0,0-0.74-3.64-0.59-6.44
					C114.38,87.49,115.39,86.41,116.64,85.4z"/>
				<path class="st1" d="M120.92,85.49c0,0,2.22,4.33,2.62,6.03c0.39,1.68,0.03,2.8-0.73,3.83c-0.74,1.01-2.02,2.11-3.21,4.25
					c0,0-1.37-1.82-1.53-2.77c-0.16-0.95,0.1-3.23,0.4-4.17C118.76,91.68,119.93,88.62,120.92,85.49z"/>
				<path class="st1" d="M122.06,99.32c-0.48,0.53-3.08,3.67-3.42,4.58c-0.35,0.91-0.95,2.64-0.15,3.85
					c0.81,1.21,2.66,3.11,4.26,3.93c0,0-1.75-2.75-1.56-5.01c0.1-1.45,1.22-2.73,1.43-3.61C122.83,102.18,122.7,100.69,122.06,99.32
					z"/>
				<path class="st1" d="M116.98,97.59c0.4,0.56,1.09,1.91,1.19,3.22c0.1,1.3-0.12,2.34-0.82,4.24c-0.88,2.4-2.26,5.07-2.9,6.27
					c0,0-1.21-1.75-1.89-3.32c0,0,1.9-2.63,2.72-4.48C116.22,101.32,116.61,99.31,116.98,97.59z"/>
				<path class="st1" d="M116.11,96.57c0,0-0.82,6.17-4.43,10.74c-2.44,3.1-4.42,4.18-5.74,4.18c-1.98,0-3.97-1.66-4.63-3.56
					c-0.67-1.89-0.45-4.84,0.83-5.89c0,0,1.18,3.7,3.72,3.84C108.73,106.04,112.41,102.8,116.11,96.57z"/>
				<path class="st1" d="M113.15,94c0.3,1.1,0.4,2.79,0,4.39c-0.3,1.22-1.03,2.79-2.44,3.68c-1.22,0.76-4.11,0.95-5.19-1.79
					C105.51,100.28,110.77,100.68,113.15,94z"/>
				<path class="st1" d="M121.73,118.86c0.71,1.86,3.28,4.2,3.27,5.65c-0.04,3.83-1.71,6.18-2.11,7.44c0,0-3.05-2.43-3.6-5.22
					C119.02,125.29,119.35,120.98,121.73,118.86z"/>
				<path class="st1" d="M118.32,121.57c0.35-1,1.48-3.71,2.78-4.66c0,0,1.66-4.91-3.68-7.94c0,0-2.2,2.93-2.77,5.68
					C114.05,117.43,116.96,119.08,118.32,121.57z"/>
				<path class="st1" d="M111.64,109.14c-0.86,1.05-2.07,2.49-3.01,2.94c0,0-0.32,2.2-0.15,3.66c0.29,2.17,1.66,4.38,2.25,6
					c0,0,2.33-3.07,2.6-4.87c0.27-1.81,0.23-3.29,0.32-4.16C113.66,112.71,112.36,110.59,111.64,109.14z"/>
				<path class="st1" d="M105.47,119.69c-0.66-1.02-2.79-4.74-2.82-7.44c0,0,2.63,1.41,4.83,0.37c0,0,0.28,3.53-0.13,4.72
					C107,118.3,106.55,118.87,105.47,119.69z"/>
				<path class="st1" d="M106.09,120.44c0.43-0.38,1.48-1.35,1.92-1.86c0,0,1.74,3.22,2.04,4.16c0,0-0.88,0.23-1.84-0.47
					C107.25,121.57,107.03,121.37,106.09,120.44z"/>
				<path class="st1" d="M114.18,118.55c-0.21,0.81-3.03,4.76-3.52,5.25c0,0,0.21,1.43,1.26,3.49c1.04,2.05,2.5,3.49,3.28,4.22
					c0,0,1.75-3.06,2.27-4.4c0.58-1.54,0.51-3.06,0.27-3.63C117.13,122.15,115.09,120.22,114.18,118.55z"/>
				<path class="st1" d="M118.42,128.89c0.62,1.27,2.51,3.35,2.8,5c0.24,1.29,0.03,2.35-0.32,3.26c-0.35,0.87-1.48,2.62-2.23,3.94
					c0,0-2.58-2.45-3.15-4.2c-0.43-1.32-0.27-3.19,0.35-4.35C116.49,131.36,117.83,130.1,118.42,128.89z"/>
				<path class="st1" d="M111.13,128.53c0.66,1.48,2.26,2.94,2.63,4.22c0.42,1.52,0.57,2.48-0.16,4.25
					c-0.65,1.55-1.44,2.46-1.69,3.4c0,0-2.1-2.73-2.45-3.87c-0.35-1.13-0.46-3-0.03-4.18C109.84,131.15,110.61,129.62,111.13,128.53
					z"/>
				<path class="st1" d="M121.44,138.93c0,0-3.61,4.38-3.53,6.71c0.11,2.89,2.02,4.82,2.28,6.6c0,0,1.89-2.15,2.61-3.6
					c0.81-1.62,1.42-3,1.22-4.84C123.81,141.95,123.33,140.77,121.44,138.93z"/>
				<path class="st1" d="M114.8,138.49c0.57,0.84,2.18,3.71,1.73,5.4c-0.45,1.72-2.23,4.12-2.83,5.14c0,0-1.42-2.94-1.75-4.3
					C111.63,143.4,111.92,141.19,114.8,138.49z"/>
				<path class="st1" d="M125.83,54.77c0.25-1.65,2.14-5.19,2.14-6.73c0-1.22-0.98-2.2-2.18-2.2c-1.22,0-2.19,0.98-2.19,2.2
					c0,1.54,1.91,5.08,2.15,6.73H125.83z"/>
				<path class="st1" d="M131.91,58.32c1.9-4.55,3.16-7.92,3.12-9.04c-0.03-0.68-0.83-1.18-1.58-1.42c-0.76-0.24-1.45-0.29-1.94,0.1
					c-0.99,0.76-1.91,6.91-2.25,9.47C130.22,57.61,130.8,57.74,131.91,58.32z"/>
				<path class="st1" d="M128.44,57.33c-0.48-0.06-0.98-0.08-1.47-0.1c0.3-2.44,1.13-6.51,1.63-8.11c0.49-1.61,1.11-2.76,2.17-3.05
					c0,0-0.82,2.24-1.26,4.54C129.07,52.93,128.73,55.13,128.44,57.33z"/>
				<g>
					<path class="st1" d="M130.22,62.74c0,0,2.13,2.25,4.24,2.75C134.46,65.49,133.59,63.23,130.22,62.74L130.22,62.74L130.22,62.74
						z M128.47,61.7c1.18-0.16,4.15,0.16,5.99,1.48c1.83,1.31,2.42,2.39,3.05,3.56c0,0-3.27,0.26-6.19-1.45
						C129.93,64.46,128.74,62.57,128.47,61.7z"/>
				</g>
				<g>
					<path class="st1" d="M147.08,72.48c0.76-0.5,1.2-1.31,1.38-2.38c0,0-3.39,0.15-6.27-0.22v0.24
						C142.19,70.11,146.9,70.14,147.08,72.48L147.08,72.48L147.08,72.48z M145.89,75.55c0.08-0.63,0.05-1.73,0.05-1.73
						c-1.7,1.6-5.19,2.73-5.19,2.73c0.05-0.94,0.35-1.76,0.35-1.76c-1.48,0.89-2.31,0.79-2.31,0.79c0.15-1.11,0.91-2.42,0.91-2.42
						c-1.05,1.31-2.38,1.4-2.38,1.4c-0.18-0.66,0.21-2.29,0.21-2.29c-0.51,0.66-1.48,2.36-4.52,3.02c-3.04,0.66-4.39-1.05-4.39-1.05
						c2.96,0.21,5.72-2.68,5.72-2.68c-1.54-0.6-2.06-1.73-2.06-1.73c0.89-0.79,1.8-0.79,1.8-0.79c-1.73-0.79-2.09-2.16-2.09-2.16
						c2.17,1.06,8.85,1.13,12.49,1.32c3.63,0.17,7.24-1.18,7.24-1.18C151.31,75,145.89,75.55,145.89,75.55z"/>
				</g>
				<path class="st1" d="M152.57,67.58c-0.13,1.73-0.58,3.43-1.17,4.64c0,0,2.14-1.62,2.65-2.99
					C154.57,67.86,154.71,66.92,152.57,67.58z"/>
				<g>
					<path class="st1" d="M157.74,73.25c0-0.5-0.41-0.9-0.9-0.9c-0.49,0-0.89,0.4-0.89,0.9c0,0.5,0.4,0.89,0.89,0.89
						C157.33,74.14,157.74,73.75,157.74,73.25L157.74,73.25L157.74,73.25z M156.32,69.3c1.21-0.29,3.74-0.58,4.86,1.08
						c1.13,1.65,0.69,4.78-1.56,6.06c0,0-3.43-2.96-7.57-0.02c0,0-0.97-0.62-3.14-1.12c0,0,1.28-1.56,2.72-2.21
						C152.9,72.5,155.56,71.73,156.32,69.3z"/>
				</g>
				<path class="st1" d="M148.44,75.84c0,0-1.5,2.03-2.61,2.92c0,0,5.58-0.05,6.99,4.81c0,0,1.94-2.98,0.52-4.93
					C151.83,76.56,150.43,76.3,148.44,75.84z"/>
				<path class="st1" d="M142.31,77.05c0,0-1.81,0.54-2.41,0.69c0,0-0.03-1.05,0.03-1.56c-0.55,0.13-1.22,0.31-1.81,0.37
					c0,0-1.81,4.05-3.21,5.68c0,0-0.09,0.9,0.7,2.26c0,0,1.02-2.39,2.84-4.31C139.51,79.11,140.16,78.56,142.31,77.05z"/>
				<path class="st1" d="M147.05,76.19c-0.56,0.16-3.45,1.07-4.86,2.08c-1.74,1.25-2.94,2.7-2.76,5.19c0,0,1.42-1.97,2.97-2.86
					C143.65,79.89,145.89,77.92,147.05,76.19z"/>
				<path class="st1" d="M147.02,57.88c-0.53,0-1.56,0.26-1.56,1.11c0,0.87,1.34,2.96,1.7,3.88h0.03c0.36-0.92,1.7-3.01,1.7-3.88
					c0-0.86-1.03-1.11-1.57-1.11H147.02z"/>
				<path class="st1" d="M148.2,64.61c0.25-1.21,0.71-4.36,1.46-5.06c0.71-0.67,1.75-0.73,2.27-0.7c0.53,0.03,1.08,0.57,0.84,1.28
					c-0.2,0.73-2.52,4.21-2.83,4.65C149.41,64.68,149.52,64.72,148.2,64.61z"/>
				<path class="st1" d="M146.14,64.61c-0.26-1.21-0.73-4.36-1.47-5.06c-0.71-0.67-1.76-0.73-2.27-0.7
					c-0.52,0.03-1.07,0.57-0.85,1.28c0.21,0.73,2.51,4.21,2.83,4.65C144.91,64.68,144.81,64.72,146.14,64.61z"/>
				<polygon class="st1" points="144.66,53.65 146.46,53.65 146.46,51.65 147.91,51.65 147.91,53.65 149.72,53.65 149.72,54.92 
					147.91,54.92 147.91,57.27 146.46,57.27 146.46,54.92 144.66,54.92 				"/>
				<polygon class="st1" points="123.25,41.77 125.05,41.77 125.05,39.77 126.52,39.77 126.52,41.77 128.33,41.77 128.33,43.03 
					126.52,43.03 126.52,45.4 125.05,45.4 125.05,43.03 123.25,43.03 				"/>
				<path class="st1" d="M166.52,66.61c-0.02-0.4-0.04-0.78-0.09-1.16c-0.13-0.98-0.15-1.81-0.05-2.51c1.3,0.51,2.18,0.82,3.97,3.73
					C170.35,66.66,167.5,64.89,166.52,66.61z"/>
				<path class="st1" d="M164.01,71.2c-0.04-0.72-0.5-3-1.09-4.6c-0.73-1.98-0.32-4.84,0.56-6.58c0.85-1.67,1.32-3.25,1.16-4.98
					c0,0,1.69,0.57,2.66,1.17c0.16,2.01-1,4.03-1.55,5.17c-0.67,1.35-0.53,3.12-0.39,4.2C165.62,67.42,165.23,69.37,164.01,71.2z"/>
				<path class="st1" d="M163.84,55.82c0.05-0.23,0.05-0.87-0.07-1.12c0,0-2.65-2.6-4.88-3.04c-1.42-0.3-2.29,0.33-2.71,0.68
					c0,0,0.79-0.09,1.98,0.89c1.19,0.97,2.67,2.14,3.79,2.44C163.06,55.96,163.31,55.87,163.84,55.82z"/>
				<path class="st1" d="M155.95,52.53c-0.99,1-1.83,2.07-1.82,3c0.01,0.96,1.11,3.36,1.69,4.27c0.58,0.91,1.43,2.11,1.32,3.56
					c-0.05,0.72-0.55,1.47-1.13,2.09c0,0,3.25-0.78,3.64-2.8c0.36-1.81-0.4-3.07-0.93-4.07c-0.49-0.95-1.99-3.14-2.37-4.06
					C156.02,53.69,155.83,53,155.95,52.53z"/>
				<path class="st1" d="M136.95,75.32c-0.66,2.32-1.76,4.5-2.85,6.21c-0.99,1.57-1.61,4.09-1.5,4.95c0,0-1.48-3.26-0.73-5.57
					C132.45,79.12,134.02,76.45,136.95,75.32z"/>
				<path class="st1" d="M133.27,76.08c0,0-2.22,0.05-3.26,0.73c-1.35,0.89-2.63,2.84-3.12,5.17c0,0,2.26-0.4,3.38-1.51
					C131.39,79.36,132.75,77.68,133.27,76.08z"/>
				<path class="st1" d="M144.84,80.15c0.43,0.03,1.57,0.3,2.13,0.47c0,0-1.9,0.56-2.85,1.35c-0.81,0.67-1.52,1.7-1.84,3.46
					c-0.46,2.45-1.89,5.08-2.32,5.87l-0.16-0.03c0.26-1.68-0.78-5.18-1.05-5.68c0,0,1.51-0.95,2.19-1.93
					C141.44,82.91,142.35,81.7,144.84,80.15z"/>
				<path class="st1" d="M134.94,85.4c-0.54,1.28-2.02,3.56-1.34,5.93c0.7,2.38,2.25,3.39,3.18,5.41c0,0,0.76-3.64,0.59-6.44
					C137.2,87.49,136.19,86.41,134.94,85.4z"/>
				<path class="st1" d="M125.82,92.04c0.1-1.39,3.3-4.74,3.14-6.55c-0.17-1.82-2.56-3.1-3.15-3.36h-0.03
					c-0.58,0.27-2.98,1.54-3.15,3.36c-0.17,1.81,3.04,5.16,3.13,6.55H125.82z"/>
				<path class="st1" d="M130.65,85.49c0,0-2.22,4.33-2.62,6.03c-0.39,1.68-0.03,2.8,0.73,3.83c0.75,1.01,2.02,2.11,3.21,4.25
					c0,0,1.36-1.82,1.53-2.77c0.16-0.95-0.1-3.23-0.4-4.17C132.82,91.68,131.64,88.62,130.65,85.49z"/>
				<path class="st1" d="M125.82,102.24c1.01-0.88,1.91-2.19,2.21-2.96c0.27-0.77,0.35-1.9-0.33-2.77c-0.81-1.03-1.82-2.2-1.88-3.14
					h-0.05c-0.07,0.94-1.07,2.11-1.88,3.14c-0.68,0.87-0.6,2-0.31,2.77c0.28,0.78,1.19,2.09,2.2,2.96H125.82z"/>
				<path class="st1" d="M129.52,99.32c0.49,0.53,3.08,3.67,3.43,4.58c0.35,0.91,0.95,2.64,0.14,3.85
					c-0.81,1.21-2.65,3.11-4.27,3.93c0,0,1.75-2.75,1.57-5.01c-0.12-1.45-1.23-2.73-1.44-3.61
					C128.75,102.18,128.9,100.69,129.52,99.32z"/>
				<path class="st1" d="M134.59,97.59c-0.4,0.56-1.09,1.91-1.2,3.22c-0.08,1.3,0.13,2.34,0.83,4.24c0.89,2.4,2.26,5.07,2.89,6.27
					c0,0,1.22-1.75,1.9-3.32c0,0-1.9-2.63-2.71-4.48C135.36,101.32,134.98,99.31,134.59,97.59z"/>
				<path class="st1" d="M135.48,96.57c0,0,0.82,6.17,4.42,10.74c2.44,3.1,4.42,4.18,5.73,4.18c1.98,0,3.97-1.66,4.64-3.56
					c0.65-1.89,0.45-4.84-0.83-5.89c0,0-1.19,3.7-3.72,3.84C142.87,106.04,139.18,102.8,135.48,96.57z"/>
				<path class="st1" d="M138.43,94c-0.3,1.1-0.39,2.79,0,4.39c0.3,1.22,1.04,2.79,2.45,3.68c1.22,0.76,4.08,0.95,5.19-1.79
					C146.07,100.28,140.82,100.68,138.43,94z"/>
				<path class="st1" d="M125.79,112.3c0.74-0.36,1.37-0.63,2.23-1.94c0.65-1.03,1.29-2.93,0.94-4.29
					c-0.45-1.68-1.34-2.34-1.89-3.39c-0.44,0.41-0.71,0.74-1.25,1.05h-0.03c-0.55-0.31-0.83-0.64-1.28-1.05
					c-0.55,1.05-1.43,1.71-1.89,3.39c-0.35,1.36,0.28,3.26,0.94,4.29C124.41,111.68,125.05,111.94,125.79,112.3z"/>
				<path class="st1" d="M125.79,122.71c0.36-1.64,3.76-4.79,3.44-6.52c-0.46-2.57-2.11-2.03-3.41-3.11h-0.03
					c-1.31,1.08-2.98,0.54-3.45,3.11c-0.3,1.72,3.08,4.88,3.43,6.52H125.79z"/>
				<path class="st1" d="M129.85,118.86c-0.72,1.86-3.29,4.2-3.27,5.65c0.05,3.83,1.7,6.18,2.1,7.44c0,0,3.05-2.43,3.59-5.22
					C132.56,125.29,132.23,120.98,129.85,118.86z"/>
				<path class="st1" d="M133.26,121.57c-0.35-1-1.47-3.71-2.77-4.66c0,0-1.66-4.91,3.68-7.94c0,0,2.2,2.93,2.78,5.68
					C137.53,117.43,134.62,119.08,133.26,121.57z"/>
				<path class="st1" d="M139.95,109.14c0.85,1.05,2.05,2.49,3,2.94c0,0,0.31,2.2,0.14,3.66c-0.28,2.17-1.66,4.38-2.25,6
					c0,0-2.34-3.07-2.62-4.87c-0.27-1.81-0.21-3.29-0.3-4.16C137.93,112.71,139.22,110.59,139.95,109.14z"/>
				<path class="st1" d="M146.1,119.69c0.66-1.02,2.81-4.74,2.84-7.44c0,0-2.64,1.41-4.85,0.37c0,0-0.28,3.53,0.15,4.72
					C144.58,118.3,145.03,118.87,146.1,119.69z"/>
				<path class="st1" d="M145.49,120.44c-0.43-0.38-1.48-1.35-1.9-1.86c0,0-1.76,3.22-2.05,4.16c0,0,0.86,0.23,1.82-0.47
					C144.33,121.57,144.54,121.37,145.49,120.44z"/>
				<path class="st1" d="M137.4,118.55c0.21,0.81,3.04,4.76,3.52,5.25c0,0-0.22,1.43-1.27,3.49c-1.04,2.05-2.49,3.49-3.27,4.22
					c0,0-1.74-3.06-2.26-4.4c-0.59-1.54-0.52-3.06-0.26-3.63C134.44,122.15,136.49,120.22,137.4,118.55z"/>
				<path class="st1" d="M125.82,141.92c0.27-1.08,1.9-2.37,2.57-4.25c0.41-1.11,0.39-2.41-0.04-3.3c-0.52-1.04-2.35-3.58-2.55-4.3
					c-0.23,0.73-2.03,3.26-2.56,4.3c-0.44,0.89-0.45,2.19-0.05,3.3c0.69,1.88,2.32,3.17,2.58,4.25H125.82z"/>
				<path class="st1" d="M133.15,128.89c-0.62,1.27-2.5,3.35-2.8,5c-0.24,1.29-0.02,2.35,0.31,3.26c0.35,0.87,1.5,2.62,2.24,3.94
					c0,0,2.58-2.45,3.15-4.2c0.43-1.32,0.27-3.19-0.36-4.35C135.08,131.36,133.75,130.1,133.15,128.89z"/>
				<path class="st1" d="M140.47,128.53c-0.67,1.48-2.27,2.94-2.63,4.22c-0.43,1.52-0.57,2.48,0.16,4.25
					c0.66,1.55,1.43,2.46,1.7,3.4c0,0,2.09-2.73,2.43-3.87c0.37-1.13,0.46-3,0.05-4.18C141.73,131.15,140.98,129.62,140.47,128.53z"
					/>
				<path class="st1" d="M125.79,162.87c0.13-1.33,2.88-5.47,3-9.85c0.07-2.2-1.87-5.62-2.98-6.93h-0.06
					c-1.09,1.31-3.04,4.73-2.97,6.93C122.92,157.4,125.65,161.54,125.79,162.87z"/>
				<path class="st1" d="M130.15,138.93c0,0,3.6,4.38,3.52,6.71c-0.1,2.89-2.03,4.82-2.29,6.6c0,0-1.9-2.15-2.61-3.6
					c-0.81-1.62-1.43-3-1.2-4.84C127.78,141.95,128.25,140.77,130.15,138.93z"/>
				<path class="st1" d="M136.78,138.49c-0.58,0.84-2.17,3.71-1.72,5.4c0.47,1.72,2.24,4.12,2.82,5.14c0,0,1.42-2.94,1.75-4.3
					C139.95,143.4,139.65,141.19,136.78,138.49z"/>
				<path class="st1" d="M128.25,169.9c0.22-3.4,2.15-5.45,2.48-7.21c0.38-1.95,0.25-3.82-1.25-6.06c-1.23,4.19-2.56,7.26-3.61,9.35
					c-0.04,0.05-0.06,0.12-0.08,0.18c-0.03-0.06-0.04-0.13-0.09-0.18c-1.05-2.09-2.38-5.16-3.59-9.35c-1.5,2.25-1.63,4.11-1.26,6.06
					c0.34,1.77,2.26,3.81,2.48,7.21c0.21,3.41-3.6,4.71-3.6,4.71c1.28,0.47,2.75,0.68,5.08-1.54c0.43-0.4,0.74-0.84,0.99-1.31
					c0.25,0.47,0.57,0.91,0.99,1.31c2.31,2.22,3.79,2.01,5.08,1.54C131.86,174.61,128.04,173.31,128.25,169.9z"/>
				<path class="st1" d="M116.25,147.24c0.39,1.28,1.58,3.63,1.74,4.35c0.29,1.35-0.1,2.99-2.55,4.72c0,0-1.58-1.12-2.21-2.58
					c-0.58-1.38-0.25-2.36,0.36-3.06C114.21,149.96,115.65,148.31,116.25,147.24z"/>
				<path class="st1" d="M121.4,152.28c0,0.68-0.5,4.54-1.59,6.46c-1.53,2.69-3.78,4.68-5.75,4.68c-1.82,0-2.21-1.1-3.11-1.53
					c0,0,0.46-2.34,2.51-2.95C115.98,158.18,119.83,155.14,121.4,152.28z"/>
				<path class="st1" d="M114.82,157.2c-0.42-0.33-0.79-0.55-1.29-1.14c0,0-1.94,0.72-3.54,1.8c-1.6,1.09-3.17,2.93-4.01,3.89
					c0,0,2.39,0.62,3.91-0.08c0,0,0.55-2.3,2.26-3.33C112.53,158.12,113.72,157.76,114.82,157.2z"/>
				<path class="st1" d="M112.85,155.23c-0.38-0.58-1.14-1.65-0.98-3.33c0,0-3.37,2.16-4.36,2.96c-1.02,0.84-3.13,3.02-3.6,3.74
					c0,0,2.55-0.56,4.51-1.23C110.56,156.65,112.04,155.69,112.85,155.23z"/>
				<path class="st1" d="M107.13,158.88c-1.81,0.66-5.89,1.32-7.59,1.83c-1.71,0.51-2.95,1.4-4.58,3.18c0,0,2.5,0.71,3.84,1.13
					c0,0,2.13-1.45,4.46-2.36C104.79,162.08,105.53,160.48,107.13,158.88z"/>
				<path class="st1" d="M103.34,171.01c0.39-0.44,0.89-0.94,0.51-1.96c-0.26-0.76-1.74-1.57-2.62-2c-1.46-0.7-5.52-1.8-6.85-2.19
					c0,0-0.66,0.77-1,1.59c-0.16,0.32,0.05,0.65,0.62,0.75c1.13,0.2,3.85-0.31,4.51,0.12c0.7,0.47,0.45,1.09,0.45,1.73
					c0,0,1.25-0.77,2.02-0.6C102.06,168.68,102.72,169.2,103.34,171.01z"/>
				<path class="st1" d="M99.72,165.32c0.29,0.1,1.88,0.58,3.42,1.57c0,0,0.68-0.27,1.02-0.9c0.33-0.61,1.71-2.67,2.99-2.95
					c0,0-1.09-0.1-1.72-0.3c0,0-1.31,0.34-2.25,0.73C102.26,163.85,101.1,164.43,99.72,165.32z"/>
				<path class="st1" d="M110.19,162.71c-0.24,0.12-0.66,0.32-1.61,0.36c0,0-3.56,2.48-3.98,4.98c-0.35,2.12,0.76,3.14,1.29,3.4
					c0.54,0.28,3.03,1.31,4.65-2.06c0,0-2.76,0.91-3.51-0.42c-0.75-1.35,0.48-3.29,1.23-3.85c0.98-0.75,2.75-1.24,3.82-1.06
					C112.08,164.07,111.22,163.24,110.19,162.71z"/>
				<path class="st1" d="M86.83,191.21c0.43-1.83,0.92-3.75,1.75-5.51c1.61-3.44,5.56-12.58,13.81-14.2
					c0.78-0.15-0.89-2.08-1.62-1.98c-0.75,0.08-2.21,1.05-2.86,1.49c0,0,0-1.96-0.02-2.31c-0.02-0.36-0.33-0.47-0.65-0.46
					c-0.32,0-2.31-0.01-2.95,0.71c-1.87,2.19-5.05,8.08-6.85,12.46c-1.8,4.38-3.02,5.73-4.92,5.06c-1.9-0.68-3.03-2.87-6.33-2.2
					c-1.15,0.24-2.42,1.01-3.42,2.15c0.28,0.54,0.63,1.19,2.18,1.19c1.54,0,4.48,0.65,6.13,1.81
					C82.73,190.57,84.46,190.95,86.83,191.21z"/>
				<path class="st1" d="M119.74,162.85c0.19,1.42,0.87,2.75,1.62,4.12c0,0-2.52,11.65-11.58,12.56c0,0,0.18-2.41,2.86-4.26
					c2.69-1.84,6.7-4.7,6.41-9.03c0,0-0.71,0.15-2.01,1.78c-1.29,1.62-4.11,6.31-8.5,6.35c0,0,0.66-2.2,2.6-3.46
					c1.94-1.26,4.41-2.88,5.52-4.84C117.79,164.11,118.96,163.21,119.74,162.85z"/>
				<path class="st1" d="M115.46,205.31l5.52,7.78l4.19-7.49l-1.48-2.67c-1.09,1.96-2.26,4.09-2.93,5.26
					c-0.52-0.72-1.91-2.68-3.74-5.26L115.46,205.31z"/>
				<path class="st1" d="M114.05,198.72c-5.39-7.58-12.04-16.97-12.71-17.92l2.09-1.51l-6.58-2.54l0.11,7.22l2.23-1.62l13.29,18.75
					L114.05,198.72z"/>
				<path class="st1" d="M68.64,156.11c1.62-1.78,4.37-0.24,7.15,2.34c2.8,2.58,4.54,5.21,2.93,6.99c-1.51,1.65-4.37,0.24-7.18-2.33
					C68.75,160.53,67,157.89,68.64,156.11z"/>
				<path class="st1" d="M73.13,187.8c-0.1-0.08-0.18-0.15-0.26-0.22c-1.48-1.3-2.32-3.31-2.32-5.51c0-4.21,3.4-7.65,7.6-7.65
					c4.19,0,7.58,3.44,7.58,7.65c0,0.57-0.11,1.5-0.11,1.5c0.35-0.65,1.59-3.57,1.85-4.11c-1.13-4.1-4.89-7.12-9.32-7.12
					c-3.82,0-7.13,2.23-8.7,5.48c0.59-3.86,2.5-7.32,3.85-8.61c1.62-1.53,4.36-2.02,4.36-2.02c-1.8,0.3-4.18-0.82-6.83-3.29
					c-2.53-2.32-3.81-4.36-3.9-6.06c0.15,2.4,0.08,3.75-0.6,5.7c-0.91,2.66-3.42,7.57-2.52,13.12c0.49,3.04,2.68,7.58,6.35,11.28
					c0.78,0.83,1.07,2.06,1.16,2.7c0,0,5.4,0,6.68,0.12c0,0,1.29-0.12,1.27-0.93c-0.01-0.81-0.73-1.01-1.37-1.01
					C77.25,188.82,74.57,188.88,73.13,187.8z"/>
				<path class="st1" d="M103.04,189.65c-3.48,1.25-6.95,1.94-10.24,2.45c-2.15,0.32-4.23,0.44-6.25,0.34
					c0.03,0.33,0.03,0.78-0.16,1.1c0,0,0.41,0.48,0.41,1.01c2.04,0.07,4.16-0.04,6.32-0.38c3.61-0.56,7.38-1.28,11.19-2.74
					L103.04,189.65z"/>
				<path class="st1" d="M108.73,189.38c4.62-2.53,9.12-6.45,13.18-12.7l0.73-1.23c-1.11,0.5-2.53,0.14-2.53,0.14
					c-0.08,0.11-0.26,0.39-0.34,0.56c-3.79,5.63-7.98,9.17-12.26,11.49L108.73,189.38z"/>
				<path class="st1" d="M78.31,191.37c-0.63-0.1-2.66-0.04-3.87,0.13c-1.33,0.22-2.85,0.48-3.01,1.23
					c-0.15,0.7,0.33,1.45,1.01,2.51c0.41,0.65,1.41,0.28,1.95,0.07c0.55-0.2,3.67-1.89,4.16-2.43
					C79.06,192.32,79.27,191.54,78.31,191.37z"/>
				<path class="st1" d="M81.49,193.45c-0.33-0.21-1.15-0.53-1.99-0.21c-0.85,0.32-3.92,2.14-4.12,3.01
					c-0.22,0.85,0.21,1.27,0.69,1.47c0.47,0.19,1.05,0.37,1.48,0.42c0.77,0.06,1.52-0.39,1.91-0.87c0.39-0.49,1.83-2.24,2.03-2.64
					C81.7,194.23,81.81,193.66,81.49,193.45z"/>
				<path class="st1" d="M81.87,195.37c-0.45,0.51-1.69,2.02-1.84,2.27c-0.14,0.25,0.08,0.64,0.47,0.59
					c0.38-0.04,2.51-0.26,3.73-1.09c1.21-0.84,2.02-2.46,1.19-3.04C84.57,193.52,83.26,193.8,81.87,195.37z"/>
				<path class="st1" d="M82.55,190.72c-0.41-0.09-2.01-0.5-2.35,0.03c-0.44,0.66-0.13,1.37,1.11,1.98
					c1.24,0.59,3.58,1.07,4.05,0.43C85.81,192.5,85.18,191.42,82.55,190.72z"/>
				<path class="st1" d="M135.32,147.24c-0.4,1.28-1.58,3.63-1.74,4.35c-0.28,1.35,0.1,2.99,2.55,4.72c0,0,1.58-1.12,2.21-2.58
					c0.59-1.38,0.25-2.36-0.36-3.06C137.37,149.96,135.94,148.31,135.32,147.24z"/>
				<path class="st1" d="M130.17,152.28c0,0.68,0.5,4.54,1.6,6.46c1.53,2.69,3.77,4.68,5.74,4.68c1.83,0,2.22-1.1,3.11-1.53
					c0,0-0.46-2.34-2.51-2.95C135.6,158.18,131.74,155.14,130.17,152.28z"/>
				<path class="st1" d="M136.75,157.2c0.42-0.33,0.78-0.55,1.28-1.14c0,0,1.96,0.72,3.55,1.8c1.59,1.09,3.15,2.93,4.01,3.89
					c0,0-2.4,0.62-3.92-0.08c0,0-0.55-2.3-2.26-3.33C139.05,158.12,137.86,157.76,136.75,157.2z"/>
				<path class="st1" d="M138.74,155.23c0.38-0.58,1.14-1.65,0.96-3.33c0,0,3.37,2.16,4.38,2.96c1.02,0.84,3.12,3.02,3.59,3.74
					c0,0-2.55-0.56-4.51-1.23C141.01,156.65,139.53,155.69,138.74,155.23z"/>
				<path class="st1" d="M144.44,158.88c1.82,0.66,5.87,1.32,7.59,1.83c1.71,0.51,2.95,1.4,4.58,3.18c0,0-2.52,0.71-3.84,1.13
					c0,0-2.13-1.45-4.47-2.36C146.79,162.08,146.05,160.48,144.44,158.88z"/>
				<path class="st1" d="M148.23,171.01c-0.39-0.44-0.88-0.94-0.51-1.96c0.27-0.76,1.76-1.57,2.65-2c1.46-0.7,5.52-1.8,6.84-2.19
					c0,0,0.66,0.77,1.01,1.59c0.15,0.32-0.06,0.65-0.62,0.75c-1.14,0.2-3.85-0.31-4.52,0.12c-0.71,0.47-0.46,1.09-0.46,1.73
					c0,0-1.23-0.77-2.03-0.6C149.52,168.68,148.85,169.2,148.23,171.01z"/>
				<path class="st1" d="M151.85,165.32c-0.3,0.1-1.88,0.58-3.42,1.57c0,0-0.68-0.27-1.02-0.9c-0.32-0.61-1.71-2.67-2.99-2.95
					c0,0,1.09-0.1,1.7-0.3c0,0,1.32,0.34,2.27,0.73C149.32,163.85,150.49,164.43,151.85,165.32z"/>
				<path class="st1" d="M141.37,162.71c0.25,0.12,0.66,0.32,1.61,0.36c0,0,3.58,2.48,3.99,4.98c0.37,2.12-0.75,3.14-1.29,3.4
					c-0.54,0.28-3.03,1.31-4.65-2.06c0,0,2.76,0.91,3.51-0.42c0.75-1.35-0.47-3.29-1.22-3.85c-0.98-0.75-2.76-1.24-3.84-1.06
					C139.49,164.07,140.35,163.24,141.37,162.71z"/>
				<path class="st1" d="M164.74,191.21c-0.43-1.83-0.91-3.75-1.74-5.51c-1.6-3.44-5.56-12.58-13.82-14.2
					c-0.77-0.15,0.89-2.08,1.65-1.98c0.74,0.08,2.21,1.05,2.86,1.49c0,0,0-1.96,0.02-2.31c0.02-0.36,0.32-0.47,0.64-0.46
					c0.32,0,2.31-0.01,2.94,0.71c1.89,2.19,5.06,8.08,6.86,12.46c1.8,4.38,3.03,5.73,4.91,5.06c1.9-0.68,3.05-2.87,6.34-2.2
					c1.15,0.24,2.42,1.01,3.43,2.15c-0.29,0.54-0.65,1.19-2.18,1.19c-1.56,0-4.51,0.65-6.14,1.81
					C168.84,190.57,167.12,190.95,164.74,191.21z"/>
				<path class="st1" d="M131.82,162.85c-0.17,1.42-0.86,2.75-1.6,4.12c0,0,2.51,11.65,11.59,12.56c0,0-0.19-2.41-2.87-4.26
					c-2.7-1.84-6.71-4.7-6.42-9.03c0,0,0.72,0.15,2,1.78c1.31,1.62,4.14,6.31,8.51,6.35c0,0-0.64-2.2-2.59-3.46
					c-1.94-1.26-4.41-2.88-5.53-4.84C133.8,164.11,132.62,163.21,131.82,162.85z"/>
				<path class="st1" d="M125.8,174.16c0.54,1.55,3.96,6.43,5.46,7.82c1.51,1.39,5.17,5.08,7.13,6.92c0,0-5.57-1.39-8.71-4.25
					c0,0-2.23,1.3-3.86,1.3h-0.08c-1.63,0-3.86-1.3-3.86-1.3c-3.13,2.86-8.69,4.25-8.69,4.25c1.95-1.84,5.61-5.53,7.11-6.92
					c1.51-1.39,4.95-6.27,5.47-7.82H125.8z"/>
				<path class="st1" d="M125.82,187.09c1.23,0,2.4-0.49,3.06-0.78c-0.66,1.4-1.9,3.56-3.09,4.46h-0.02
					c-1.19-0.89-2.43-3.06-3.08-4.46c0.65,0.29,1.81,0.78,3.05,0.78H125.82z"/>
				<path class="st1" d="M130.59,213.09l21.79-30.74l2.22,1.61l0.14-7.22l-6.6,2.54l2.1,1.51c-1.07,1.51-17.36,24.49-19.41,27.39
					l-9.87-18l-1.22,1.87l-8.78,13.36l-2.2-1.48l-0.03,7.1l6.67-2.66l-2.24-1.49c1.21-1.84,5.98-9.08,7.57-11.52L130.59,213.09z"/>
				<path class="st1" d="M134.57,201.02c-1.47-2.23-2.95-4.49-3.7-5.64c-0.55,1.04-1.67,3.06-2.92,5.3l-1.56-2.81l4.24-7.69
					l1.23,1.87l4.36,6.64L134.57,201.02z"/>
				<path class="st1" d="M139.07,203.02l1.57,2.4l2.19-1.48l0.04,7.11l-6.67-2.66l2.23-1.49c-0.23-0.35-0.57-0.9-1.01-1.56
					L139.07,203.02z"/>
				<path class="st1" d="M182.94,156.11c-1.63-1.78-4.37-0.24-7.17,2.34c-2.78,2.58-4.53,5.21-2.91,6.99
					c1.5,1.65,4.4,0.24,7.18-2.33C182.82,160.53,184.57,157.89,182.94,156.11z"/>
				<path class="st1" d="M178.45,187.8c0.1-0.08,0.17-0.15,0.25-0.22c1.48-1.3,2.34-3.31,2.34-5.51c0-4.21-3.41-7.65-7.6-7.65
					c-4.19,0-7.58,3.44-7.58,7.65c0,0.57,0.11,1.5,0.11,1.5c-0.34-0.65-1.6-3.57-1.85-4.11c1.12-4.1,4.87-7.12,9.32-7.12
					c3.82,0,7.13,2.23,8.69,5.48c-0.6-3.86-2.48-7.32-3.84-8.61c-1.61-1.53-4.36-2.02-4.36-2.02c1.8,0.3,4.17-0.82,6.84-3.29
					c2.52-2.32,3.83-4.36,3.89-6.06c-0.15,2.4-0.09,3.75,0.58,5.7c0.92,2.66,3.43,7.57,2.55,13.12c-0.49,3.04-2.69,7.58-6.35,11.28
					c-0.79,0.83-1.09,2.06-1.17,2.7c0,0-5.42,0-6.7,0.12c0,0-1.28-0.12-1.25-0.93c0.02-0.81,0.73-1.01,1.38-1.01
					C174.32,188.82,177.02,188.88,178.45,187.8z"/>
				<path class="st1" d="M142.83,189.37c-4.61-2.54-9.11-6.44-13.18-12.69l-0.73-1.23c1.12,0.5,2.54,0.14,2.54,0.14
					c0.08,0.11,0.25,0.39,0.33,0.56c3.79,5.62,7.98,9.17,12.27,11.49L142.83,189.37z"/>
				<path class="st1" d="M148.53,189.64c3.48,1.26,6.96,1.95,10.24,2.46c2.15,0.32,4.25,0.45,6.25,0.34
					c-0.03,0.33-0.03,0.78,0.17,1.1c0,0-0.4,0.48-0.4,1.01c-2.05,0.07-4.16-0.04-6.34-0.38c-3.58-0.56-7.38-1.28-11.18-2.74
					L148.53,189.64z"/>
				<path class="st1" d="M173.26,191.37c0.65-0.1,2.67-0.04,3.88,0.13c1.33,0.22,2.85,0.48,3.01,1.23c0.14,0.7-0.34,1.45-1,2.51
					c-0.43,0.65-1.42,0.28-1.96,0.07c-0.55-0.2-3.68-1.89-4.19-2.43C172.52,192.32,172.31,191.54,173.26,191.37z"/>
				<path class="st1" d="M170.07,193.45c0.34-0.21,1.16-0.53,2.01-0.21c0.84,0.32,3.91,2.14,4.13,3.01c0.2,0.85-0.22,1.27-0.7,1.47
					c-0.47,0.19-1.05,0.37-1.48,0.42c-0.76,0.06-1.51-0.39-1.91-0.87c-0.4-0.49-1.83-2.24-2.05-2.64
					C169.88,194.23,169.77,193.66,170.07,193.45z"/>
				<path class="st1" d="M169.71,195.37c0.44,0.51,1.69,2.02,1.83,2.27c0.15,0.25-0.08,0.64-0.46,0.59
					c-0.39-0.04-2.5-0.26-3.72-1.09c-1.21-0.84-2.02-2.46-1.18-3.04C167,193.52,168.31,193.8,169.71,195.37z"/>
				<path class="st1" d="M169.03,190.72c0.4-0.09,2-0.5,2.35,0.03c0.43,0.66,0.12,1.37-1.12,1.98c-1.23,0.59-3.57,1.07-4.04,0.43
					C165.76,192.5,166.4,191.42,169.03,190.72z"/>
				<rect x="267.75" class="st2" width="251.58" height="253.21"/>
				<path class="st1" d="M470.41,80.32c0.02-1.12,0.23-8.98,0.25-10.04h1.9c7.35,0,8.58,1.31,9.27,10.04H470.41L470.41,80.32z
					 M491.33,75.95c-1.15-9.78-5.71-14.86-16.49-14.86h-13.7l-1.86,55.22h9.98c0,0,0.92-25.61,0.97-26.83
					c1.09,0,11.58,0.01,12.61,0.01c0.11,1.12,2,26.81,2,26.81h10.3C495.16,116.31,491.61,78.38,491.33,75.95L491.33,75.95z"/>
				<path class="st1" d="M349.3,156.16c0.02-1.12,0.23-8.98,0.25-10.04l1.79-0.11c7.35,0,8.7,1.42,9.38,10.15H349.3L349.3,156.16z
					 M370.21,151.8c-1.15-9.77-5.71-14.86-16.48-14.86h-13.7l-1.86,55.22h9.98c0,0,0.92-25.61,0.98-26.82
					c1.1,0,11.58,0.01,12.61,0.01c0.11,1.12,2,26.81,2,26.81h10.31C374.04,192.16,370.49,154.22,370.21,151.8L370.21,151.8z"/>
				<polygon class="st1" points="295.31,61.09 295.31,116.3 305.4,116.3 305.4,70.27 317.9,70.27 317.9,116.3 328,116.3 328,61.09 
									"/>
				<path class="st1" d="M402.03,80.32h-5.49c-2.27,0-3.96-0.51-5.03-1.54c-0.76-0.72-1.13-1.69-1.13-2.95V61.09h-10.11v15.76
					c0,3.63,1.43,6.71,4.25,9.15c2.78,2.42,6.18,3.64,10.13,3.64h7.38v26.66h10.1V61.09h-10.1V80.32z"/>
				<polygon class="st1" points="423.3,61.09 423.3,70.27 431.69,70.27 431.69,116.3 431.81,116.3 441.78,116.3 441.9,116.3 
					441.9,70.27 450.29,70.27 450.29,61.09 				"/>
				<polygon class="st1" points="408.49,136.93 408.49,154.58 394.64,154.58 394.64,136.93 384.57,136.93 384.57,192.16 
					394.64,192.16 394.64,163.76 408.49,163.76 408.49,192.16 418.57,192.16 418.57,136.93 				"/>
				<g>
					<path class="st1" d="M308.84,183.62c-0.98,0-3.45-0.23-3.45-0.23v-10.78v-1.13v-7.53c0,0,0.79-0.19,1.66-0.19
						c5.12,0,11.17-0.3,11.17,9.92C318.22,183.05,311.58,183.62,308.84,183.62L308.84,183.62L308.84,183.62z M310.07,155
						c-1.74,0-3.28,0.04-4.67,0.11v-8.99h18.1v-9.18h-28.19v9.18v46.03h0.68h14.63c15.27,0,17.63-13.66,17.63-18.71
						C328.25,167.45,325.9,155,310.07,155z"/>
				</g>
				<g>
					<path class="st1" d="M347.55,88.79L347.55,88.79c0.08-14.95,3.75-19.87,7.62-19.94c3.87,0.07,7.54,4.99,7.62,19.93v0.01
						c-0.09,14.6-3.76,19.58-7.62,19.66C351.31,108.38,347.64,103.39,347.55,88.79L347.55,88.79L347.55,88.79z M372.85,86.75
						c-0.17-7.9-1.52-13.56-3.61-17.58c-3.29-6.87-8.53-9.44-13.94-9.5c-0.01,0-0.02-0.01-0.04-0.01c-0.03,0-0.06,0-0.09,0
						c-0.03,0-0.06,0-0.09,0c-0.01,0-0.02,0.01-0.03,0.01c-5.41,0.06-10.65,2.63-13.94,9.5c-2.09,4.02-3.43,9.68-3.61,17.58
						c0,0.01-0.02,1.77-0.02,1.79l0,0c0.01,4.92,0.55,9.69,1.61,13.54c2.77,11.31,9.17,15.32,15.85,15.44c0.05,0,0.1,0.01,0.14,0.01
						c0.03,0,0.06,0,0.09,0c0.03,0,0.06,0,0.09,0c0.05,0,0.09,0,0.14-0.01c6.68-0.12,13.08-4.12,15.85-15.44
						c1.07-3.84,1.61-8.61,1.61-13.54l0,0C372.87,88.52,372.85,86.76,372.85,86.75z"/>
				</g>
				<path class="st1" d="M468.83,192.15l-12.14-32.36c2.52-1.89,4.48-5.51,5.36-9.11c0.85-3.5,1.96-13.74,1.96-13.74h-9.93
					c-0.06,1.04-0.27,4.55-0.59,8.11c-0.46,5.28-2,10.15-7.37,10.15h-4.14c-0.01-0.44,0-18.25,0-18.25h-10.1v55.23h10.1v-28.04
					c0,0,5.34,0.01,6.1,0l9.92,28.03H468.83z"/>
			</g>
		</g>
	</g>
</g>
</svg>
