<?xml version="1.0" encoding="utf-8"?>
<!-- Generator: Adobe Illustrator 24.0.2, SVG Export Plug-In . SVG Version: 6.00 Build 0)  -->
<svg version="1.1" id="Слой_1" xmlns="http://www.w3.org/2000/svg" xmlns:xlink="http://www.w3.org/1999/xlink" x="0px" y="0px"
	 viewBox="0 0 122 122" style="enable-background:new 0 0 122 122;" xml:space="preserve">
<style type="text/css">
	.st0{fill:#4B7DBF;}
	.st1{fill:url(#SVGID_1_);}
	.st2{fill:url(#SVGID_2_);}
	.st3{fill:#FFFFFF;}
	.st4{fill:url(#SVGID_3_);}
	.st5{fill:url(#SVGID_4_);}
	.st6{fill:url(#SVGID_5_);}
	.st7{fill:#2585E5;}
</style>
<g>
	<path class="st0" d="M61,122C27.36,122,0,94.64,0,61S27.36,0,61,0s61,27.36,61,61S94.64,122,61,122z M61,1C27.92,1,1,27.92,1,61
		s26.92,60,60,60s60-26.92,60-60S94.08,1,61,1z"/>
</g>
<circle class="st3" cx="61" cy="61" r="47.63"/>
<g>
	<path class="st7" d="M61.6,72.4c7.71,0,13.97-6.25,13.97-13.97c0-7.71-6.25-13.97-13.97-13.97c-7.71,0.01-13.96,6.26-13.97,13.97
		C47.63,66.14,53.89,72.4,61.6,72.4z M61.6,46.39c6.65,0,12.04,5.39,12.04,12.04c0,6.65-5.39,12.04-12.04,12.04
		c-6.65,0-12.04-5.39-12.04-12.04C49.57,51.78,54.95,46.39,61.6,46.39z"/>
	<path class="st7" d="M86.74,76.73c-1.28-2.26-4.1-3.13-6.43-1.96l-7.55,3.57c-1.04-1.94-3.04-3.17-5.24-3.23l-6.97-0.19
		c-1.1-0.03-2.19-0.31-3.17-0.82l-0.71-0.37c-3.63-1.89-7.95-1.89-11.58,0.01l0.04-1.61c0.01-0.53-0.4-0.98-0.94-0.99l-7.64-0.21
		c-0.53-0.01-0.97,0.4-0.99,0.94l-0.46,16.76c-0.01,0.53,0.4,0.98,0.94,0.99l7.64,0.21h0.03c0.52,0,0.95-0.42,0.96-0.94l0.02-0.8
		l1.98-1.06c0.78-0.42,1.69-0.52,2.54-0.28l11.85,3.33c0.02,0.01,0.04,0.01,0.06,0.02c0.86,0.18,1.73,0.27,2.6,0.27
		c1.85,0,3.68-0.4,5.37-1.17c0.04-0.02,0.08-0.04,0.12-0.07l17.18-11.11C86.86,77.73,86.99,77.17,86.74,76.73z M42.8,87.88
		l-5.71-0.16l0.41-14.84l5.71,0.16L42.8,87.88z M68.26,87.47c-2.09,0.94-4.43,1.2-6.68,0.75L49.76,84.9
		c-1.33-0.38-2.75-0.22-3.97,0.43l-1.01,0.54l0.27-9.86c3.21-2.14,7.33-2.36,10.76-0.57l0.71,0.37c1.24,0.64,2.61,0.99,4,1.03
		l6.97,0.19c1.96,0.06,3.62,1.45,4.02,3.37l-10.38-0.29c-0.53-0.01-0.97,0.41-0.99,0.94c-0.01,0.53,0.41,0.98,0.94,0.99l11.45,0.32
		h0.03c0.52,0,0.95-0.42,0.96-0.94c0.01-0.42-0.02-0.84-0.09-1.25l7.74-3.66c0.01,0,0.02-0.01,0.02-0.01
		c1.1-0.56,2.43-0.37,3.33,0.47L68.26,87.47z"/>
	<path class="st7" d="M61.6,42.72c0.53,0,0.96-0.43,0.96-0.96V32.6c0-0.53-0.43-0.96-0.96-0.96c-0.53,0-0.96,0.43-0.96,0.96v9.15
		C60.64,42.28,61.07,42.72,61.6,42.72z"/>
	<path class="st7" d="M68.83,42.72c0.53,0,0.96-0.43,0.96-0.96v-4.33c0-0.53-0.43-0.96-0.96-0.96c-0.53,0-0.96,0.43-0.96,0.96v4.33
		C67.86,42.28,68.29,42.72,68.83,42.72z"/>
	<path class="st7" d="M54.38,42.72c0.53,0,0.96-0.43,0.96-0.96v-4.33c0-0.53-0.43-0.96-0.96-0.96c-0.53,0-0.96,0.43-0.96,0.96v4.33
		C53.41,42.28,53.85,42.72,54.38,42.72z"/>
	<path class="st7" d="M58.32,66.06h2.08v-2.23h2.98v-1.97H60.4v-1.54h2.98h0.67c0.88,0,1.66-0.19,2.33-0.56
		c0.67-0.37,1.19-0.9,1.56-1.58c0.37-0.68,0.55-1.47,0.55-2.38c0-0.9-0.18-1.7-0.55-2.38c-0.37-0.69-0.89-1.22-1.56-1.59
		c-0.67-0.38-1.45-0.56-2.33-0.56H60.4h-1.01h-1.07v7.08h-1.76v1.97h1.76v1.54h-1.76v1.97h1.76V66.06z M64.12,53.24
		c0.45,0,0.84,0.11,1.18,0.32c0.34,0.21,0.6,0.51,0.79,0.9c0.19,0.39,0.28,0.83,0.28,1.34c0,0.5-0.09,0.95-0.28,1.33
		c-0.19,0.39-0.45,0.69-0.79,0.9c-0.34,0.21-0.73,0.32-1.18,0.32h-0.74H60.4v-5.11H64.12z"/>
</g>
</svg>
