<svg xmlns="http://www.w3.org/2000/svg" style="display: none;">
    
    <symbol id="cart" viewBox="0 0 469.33 469.33">
        <g>
            <path d="M435,42.67H85.33v3.06L81,30.73A42.89,42.89,0,0,0,40,0H10.67a10.67,10.67,0,1,0,0,21.33H40A21.44,21.44,0,0,1,60.48,36.7l66.4,227.63-34,42.52a34.37,34.37,0,0,0,26.84,55.82H416a10.67,10.67,0,0,0,0-21.34H119.69a13,13,0,0,1-10.17-21.15l34.28-42.85H353a42.85,42.85,0,0,0,38.62-24.5L466.07,94.66A34.61,34.61,0,0,0,469.33,80V77A34.38,34.38,0,0,0,435,42.67ZM448,80a13.07,13.07,0,0,1-1.24,5.54L372.33,243.75A21.44,21.44,0,0,1,353,256H146.67l-56-192H435a13,13,0,0,1,13,13Z"/>
            <path d="M128,384a42.67,42.67,0,1,0,42.67,42.67A42.72,42.72,0,0,0,128,384Zm0,64a21.34,21.34,0,1,1,21.33-21.33A21.36,21.36,0,0,1,128,448Z"/>
            <path d="M384,384a42.67,42.67,0,1,0,42.67,42.67A42.72,42.72,0,0,0,384,384Zm0,64a21.34,21.34,0,1,1,21.33-21.33A21.36,21.36,0,0,1,384,448Z"/>
        </g>
    </symbol>


    <symbol id="settings" viewBox="0 0 504 480">
        <g>
            <path d="M378.79,405.34a56,56,0,0,0-105.58,0l-.94,2.66H0v32H272.27l.94,2.66a56,56,0,0,0,105.58,0l.94-2.66H504V408H379.73ZM326,448a24,24,0,1,1,24-24A24,24,0,0,1,326,448Z"/>
            <path d="M204.79,221.34a56,56,0,0,0-105.58,0L98.27,224H0v32H98.27l.94,2.66a56,56,0,0,0,105.58,0l.94-2.66H504V224H205.73ZM152,264a24,24,0,1,1,24-24A24,24,0,0,1,152,264Z"/>
            <path d="M416.79,37.34a56,56,0,0,0-105.58,0L310.27,40H0V72H310.27l.94,2.66a56,56,0,0,0,105.58,0l.94-2.66H504V40H417.73ZM364,80a24,24,0,1,1,24-24A24,24,0,0,1,364,80Z"/>
        </g>
    </symbol>

    <symbol id="heart" viewBox="0 -28 512.001 512">
        <path d="m256 455.515625c-7.289062 0-14.316406-2.640625-19.792969-7.4375-20.683593-18.085937-40.625-35.082031-58.21875-50.074219l-.089843-.078125c-51.582032-43.957031-96.125-81.917969-127.117188-119.3125-34.644531-41.804687-50.78125-81.441406-50.78125-124.742187 0-42.070313 14.425781-80.882813 40.617188-109.292969 26.503906-28.746094 62.871093-44.578125 102.414062-44.578125 29.554688 0 56.621094 9.34375 80.445312 27.769531 12.023438 9.300781 22.921876 20.683594 32.523438 33.960938 9.605469-13.277344 20.5-24.660157 32.527344-33.960938 23.824218-18.425781 50.890625-27.769531 80.445312-27.769531 39.539063 0 75.910156 15.832031 102.414063 44.578125 26.191406 28.410156 40.613281 67.222656 40.613281 109.292969 0 43.300781-16.132812 82.9375-50.777344 124.738281-30.992187 37.398437-75.53125 75.355469-127.105468 119.308594-17.625 15.015625-37.597657 32.039062-58.328126 50.167969-5.472656 4.789062-12.503906 7.429687-19.789062 7.429687zm-112.96875-425.523437c-31.066406 0-59.605469 12.398437-80.367188 34.914062-21.070312 22.855469-32.675781 54.449219-32.675781 88.964844 0 36.417968 13.535157 68.988281 43.882813 105.605468 29.332031 35.394532 72.960937 72.574219 123.476562 115.625l.09375.078126c17.660156 15.050781 37.679688 32.113281 58.515625 50.332031 20.960938-18.253907 41.011719-35.34375 58.707031-50.417969 50.511719-43.050781 94.136719-80.222656 123.46875-115.617188 30.34375-36.617187 43.878907-69.1875 43.878907-105.605468 0-34.515625-11.605469-66.109375-32.675781-88.964844-20.757813-22.515625-49.300782-34.914062-80.363282-34.914062-22.757812 0-43.652344 7.234374-62.101562 21.5-16.441406 12.71875-27.894532 28.796874-34.609375 40.046874-3.453125 5.785157-9.53125 9.238282-16.261719 9.238282s-12.808594-3.453125-16.261719-9.238282c-6.710937-11.25-18.164062-27.328124-34.609375-40.046874-18.449218-14.265626-39.34375-21.5-62.097656-21.5zm0 0"/>
    </symbol>

    <symbol id="play" viewBox="0 0 820.67 820.67">
        <defs>
            <clipPath id="clip-path" transform="translate(0 0)">
            <rect width="820.67" height="820.67" style="fill: none"/>
            </clipPath>
        </defs>
        <g style="clip-path: url(#clip-path)">
            <circle cx="410.33" cy="410.33" r="401.33" style="fill: none;stroke: #fff;stroke-miterlimit: 10;stroke-width: 18px"/>
            <polygon points="553.96 408.68 428.13 481.33 302.31 553.97 302.31 408.68 302.31 263.39 428.13 336.04 553.96 408.68" style="fill: #fff;fill-rule: evenodd"/>
        </g>
    </symbol>


    <symbol id="ok" viewBox="0 0 820.67 820.67">
        <defs>
        <clipPath id="clip-path" transform="translate(0 0)">
        <rect width="820.67" height="820.67" style="fill: none"/>
        </clipPath>
        </defs>
        <g style="clip-path: url(#clip-path)">
        <circle cx="410.33" cy="410.33" r="401.33" style="fill: none;stroke: #fff;stroke-miterlimit: 10;stroke-width: 18px"/>
        <path d="M268.29,426c-12.06,23.7,1.63,35,32.86,54.38,26.55,16.4,63.23,22.4,86.79,24.8-9.66,9.28,34.59-33.28-92.85,89.3-27,25.9,16.49,67.46,43.49,42.11l73.1-70.51c28,26.93,54.81,52.73,73.1,70.61,27,25.45,70.5-15.75,43.78-42.11-2-1.91-99.06-95-93.14-89.3,23.85-2.4,60-8.76,86.22-24.81l0,0c31.22-19.45,44.91-30.75,33-54.45-7.17-13.45-26.52-24.7-52.29-5.25,0,0-34.79,26.65-90.9,26.65s-90.9-26.65-90.9-26.65c-25.74-19.55-45.17-8.2-52.27,5.25" transform="translate(0 0)" style="fill: #fff"/>
        <path d="M411.42,411.48c68.4,0,124.25-53.46,124.25-119.26,0-66.08-55.85-119.54-124.25-119.54S287.15,226.14,287.15,292.22c0,65.8,55.85,119.26,124.27,119.26m0-178.24c33.61,0,61,26.37,61,59,0,32.33-27.42,58.7-61,58.7s-61-26.37-61-58.7c0-32.63,27.39-59,61-59" transform="translate(0 0)" style="fill: #fff"/>
        </g>
    </symbol>

    <symbol id="insta" viewBox="0 0 820.67 820.67">
        <defs>
            <clipPath id="clip-path" transform="translate(0 0)">
            <rect width="820.67" height="820.67" style="fill: none"/>
            </clipPath>
        </defs>
        <g style="clip-path: url(#clip-path)">
            <path d="M482.4,218.16H338.27A120.13,120.13,0,0,0,218.16,338.27V482.4A120.12,120.12,0,0,0,338.27,602.5H482.4A120.11,120.11,0,0,0,602.5,482.4V338.27A120.12,120.12,0,0,0,482.4,218.16M566.47,482.4a84.16,84.16,0,0,1-84.07,84.07H338.27A84.16,84.16,0,0,1,254.2,482.4V338.27a84.16,84.16,0,0,1,84.07-84.07H482.4a84.16,84.16,0,0,1,84.07,84.07Z" transform="translate(0 0)" style="fill: #fff"/>
            <path d="M410.33,314.25a96.09,96.09,0,1,0,96.09,96.08,96.08,96.08,0,0,0-96.09-96.08m0,156.14a60.06,60.06,0,1,1,60.06-60.06,60.14,60.14,0,0,1-60.06,60.06" transform="translate(0 0)" style="fill: #fff"/>
            <path d="M526.43,307a12.81,12.81,0,1,1-12.81-12.8A12.81,12.81,0,0,1,526.43,307" transform="translate(0 0)" style="fill: #fff"/>
            <circle cx="410.33" cy="410.33" r="401.33" transform="translate(-169.97 410.33) rotate(-45)" style="fill: none;stroke: #fff;stroke-miterlimit: 10;stroke-width: 18px"/>
        </g>
    </symbol>

    <symbol id="vk" viewBox="0 0 820.67 820.67">
        <defs>
            <clipPath id="clip-path" transform="translate(0 0)">
            <rect width="820.67" height="820.67" style="fill: none"/>
            </clipPath>
        </defs>
        <g style="clip-path: url(#clip-path)">
            <path d="M531.76,437.18c-6.21-7.85-4.44-11.33,0-18.34.07-.08,51.32-70.9,56.6-94.91l0,0c2.62-8.75,0-15.18-12.69-15.18h-42c-10.68,0-15.61,5.52-18.25,11.69,0,0-21.38,51.17-51.62,84.34-9.76,9.58-14.27,12.65-19.6,12.65-2.62,0-6.7-3.07-6.7-11.82V323.91c0-10.5-3-15.18-11.84-15.18h-66c-6.7,0-10.69,4.89-10.69,9.45,0,9.95,15.12,12.24,16.69,40.24v60.76c0,13.31-2.41,15.75-7.77,15.75-14.28,0-48.92-51.37-69.45-110.17-4.14-11.41-8.19-16-19-16h-42c-12,0-14.4,5.52-14.4,11.7,0,10.91,14.28,65.17,66.37,136.84,34.72,48.93,83.62,75.45,128.1,75.45,26.73,0,30-5.89,30-16,0-46.75-2.42-51.17,11-51.17,6.2,0,16.89,3.07,41.85,26.67,28.53,28,33.22,40.52,49.19,40.52h42c12,0,18-5.89,14.54-17.51-8-24.43-61.93-74.69-64.36-78" transform="translate(0 0)" style="fill: #fff"/>
            <circle cx="410.33" cy="410.33" r="401.33" transform="translate(-169.97 410.33) rotate(-45)" style="fill: none;stroke: #fff;stroke-miterlimit: 10;stroke-width: 18px"/>
        </g>
    </symbol>

    <symbol id="soc-fb" viewBox="0 0 10.85 20.08">
        <path d="M3,20.08V10.85H0V6.78H3V5.2C3,2.46,5,0,7.56,0h3.29V4.07H7.56a1,1,0,0,0-.78,1.09V6.78h4.07v4.07H6.78v9.23Z" />
    </symbol>

    <symbol id="soc-vk" viewBox="0 0 22 12.55">
        <path d="M21.88,11.33l-.07-.14a11.77,11.77,0,0,0-2.19-2.53l0,0h0v0h0a12.64,12.64,0,0,1-.93-.93.9.9,0,0,1-.16-.93,8.59,8.59,0,0,1,1-1.5l.75-1C21.57,2.52,22.14,1.39,22,.91L21.9.79A.72.72,0,0,0,21.54.6a2.1,2.1,0,0,0-.73,0l-3.3,0a.44.44,0,0,0-.23,0l-.15,0-.05,0,0,0a.46.46,0,0,0-.13.12,1.28,1.28,0,0,0-.11.2A18.64,18.64,0,0,1,15.56,3.6c-.28.47-.54.88-.77,1.23a6.55,6.55,0,0,1-.6.77,4.58,4.58,0,0,1-.44.39c-.13.1-.22.14-.29.13l-.2,0A.78.78,0,0,1,13,5.79a1.61,1.61,0,0,1-.13-.45c0-.17,0-.33,0-.46s0-.31,0-.55,0-.4,0-.48c0-.29,0-.61,0-.94s0-.61,0-.81,0-.41,0-.63a3.22,3.22,0,0,0,0-.52,2.29,2.29,0,0,0-.12-.37.64.64,0,0,0-.24-.27,1.21,1.21,0,0,0-.38-.16A8,8,0,0,0,10.58,0,7.5,7.5,0,0,0,7.85.28a1.45,1.45,0,0,0-.44.34c-.14.17-.16.26-.06.28a1.4,1.4,0,0,1,1,.49l.06.14a1.68,1.68,0,0,1,.16.52,5,5,0,0,1,.11.84,8.48,8.48,0,0,1,0,1.43c0,.4-.08.71-.11.93a1.73,1.73,0,0,1-.16.54A2.29,2.29,0,0,1,8.26,6s0,0-.06,0a.81.81,0,0,1-.31.06A.69.69,0,0,1,7.5,6,2.68,2.68,0,0,1,7,5.55a6.19,6.19,0,0,1-.56-.78,12.9,12.9,0,0,1-.64-1.2l-.18-.33c-.12-.21-.28-.52-.47-.93s-.38-.8-.53-1.19A.68.68,0,0,0,4.37.76l0,0A.67.67,0,0,0,4.13.63,1.12,1.12,0,0,0,3.87.55L.73.57A.8.8,0,0,0,.08.79L0,.86A.42.42,0,0,0,0,1a.8.8,0,0,0,.07.31C.53,2.43,1,3.47,1.56,4.47s1,1.8,1.41,2.41.8,1.19,1.21,1.73.69.89.82,1.05l.31.34.29.27a5.34,5.34,0,0,0,.81.66,12.69,12.69,0,0,0,1.18.76,6.43,6.43,0,0,0,1.5.61,5.16,5.16,0,0,0,1.68.18h1.31a.88.88,0,0,0,.61-.25l0-.05a.66.66,0,0,0,.09-.22,1,1,0,0,0,0-.31,3.51,3.51,0,0,1,.08-.89,2.14,2.14,0,0,1,.19-.59,1.11,1.11,0,0,1,.25-.34,1.08,1.08,0,0,1,.19-.17l.09,0a.73.73,0,0,1,.65.18,3.93,3.93,0,0,1,.7.66c.22.27.48.56.78.89a5.94,5.94,0,0,0,.8.73l.23.14a2.64,2.64,0,0,0,.6.25,1.22,1.22,0,0,0,.64.06l2.93,0a1.29,1.29,0,0,0,.68-.15A.54.54,0,0,0,22,12a.85.85,0,0,0,0-.39,1.46,1.46,0,0,0-.08-.31Zm0,0" />
    </symbol>

    <symbol id="soc-share" viewBox="0 0 20.08 20.08">
        <g>
            <path d="M19.56,3.75,16.33.52a1.79,1.79,0,0,0-2.52,0l-5,5A1.79,1.79,0,0,0,8.82,8l3.23,3.23a1.8,1.8,0,0,0,2.53,0l5-5a1.77,1.77,0,0,0,0-2.52ZM14.23,9.22a1,1,0,0,1-1.48,0L10.86,7.33a1,1,0,0,1,0-1.48l3.29-3.29a1,1,0,0,1,1.48,0l1.89,1.89a1,1,0,0,1,0,1.48Zm0,0" />
            <path d="M11.26,12.05,8,8.82a1.79,1.79,0,0,0-2.52,0l-5,5a1.79,1.79,0,0,0,0,2.52l3.23,3.23a1.77,1.77,0,0,0,2.52,0l5-5a1.8,1.8,0,0,0,0-2.53ZM5.93,17.52a1,1,0,0,1-1.48,0L2.56,15.63a1,1,0,0,1,0-1.48l3.29-3.29a1,1,0,0,1,1.48,0l1.89,1.89a1,1,0,0,1,0,1.48Zm0,0" />
            <path d="M7.92,13.58a.89.89,0,0,1-1.26,0l-.16-.16a.88.88,0,0,1,0-1.25L12.17,6.5a.88.88,0,0,1,1.25,0l.16.16a.89.89,0,0,1,0,1.26Zm0,0" />
        </g>
    </symbol>

    <symbol id="soc-insta" viewBox="0 0 18.83 18.83">
        <path d="M13.74,0H5.09A5.09,5.09,0,0,0,0,5.09v8.65a5.1,5.1,0,0,0,5.09,5.09h8.65a5.1,5.1,0,0,0,5.09-5.09V5.09A5.1,5.1,0,0,0,13.74,0Zm-.9,11.89a4.16,4.16,0,0,1-2.77,1.66,4.46,4.46,0,0,1-.63,0,4.22,4.22,0,0,1-.61-8.4,4.29,4.29,0,0,1,1.24,0,4.22,4.22,0,0,1,2.77,6.69Zm2.07-7.61a1.09,1.09,0,0,1-.74.3,1,1,0,0,1-1-1,1.08,1.08,0,0,1,.31-.74,1,1,0,0,1,.73-.3,1.09,1.09,0,0,1,.74.3,1.07,1.07,0,0,1,.3.74A1,1,0,0,1,14.91,4.28Z" />
    </symbol>

    <symbol id="soc-tg" viewBox="0 0 20.86 17.57">
        <path d="M19.52.07.44,7.5A.7.7,0,0,0,.5,8.82l4.85,1.43L7.15,16a.83.83,0,0,0,1.39.33l2.51-2.56L16,17.37a1,1,0,0,0,1.61-.62L20.83,1.18A1,1,0,0,0,19.52.07ZM17.13,3.52,8.27,11.36a.47.47,0,0,0-.16.3l-.34,3a.09.09,0,0,1-.18,0L6.18,10.19a.48.48,0,0,1,.21-.55L16.85,3.15a.23.23,0,0,1,.28.37Zm0,0" />
    </symbol>

    <symbol id="soc-tw" viewBox="0 0 21.62 17.57">
        <path d="M21.62,2.08a9,9,0,0,1-2.55.7A4.43,4.43,0,0,0,21,.32,8.78,8.78,0,0,1,18.21,1.4a4.44,4.44,0,0,0-7.68,3,4.29,4.29,0,0,0,.12,1A12.57,12.57,0,0,1,1.51.81,4.36,4.36,0,0,0,.9,3a4.43,4.43,0,0,0,2,3.69,4.4,4.4,0,0,1-2-.55v.05a4.43,4.43,0,0,0,3.56,4.35,4.18,4.18,0,0,1-1.17.16,4.6,4.6,0,0,1-.84-.08,4.45,4.45,0,0,0,4.15,3.08,8.9,8.9,0,0,1-5.51,1.9A9.28,9.28,0,0,1,0,15.58a12.52,12.52,0,0,0,6.8,2A12.53,12.53,0,0,0,19.42,5c0-.19,0-.38,0-.57a9.12,9.12,0,0,0,2.21-2.3Zm0,0" />
    </symbol>


    <symbol id="soc-tw" viewBox="0 0 21.62 17.57">
        <path d="M21.62,2.08a9,9,0,0,1-2.55.7A4.43,4.43,0,0,0,21,.32,8.78,8.78,0,0,1,18.21,1.4a4.44,4.44,0,0,0-7.68,3,4.29,4.29,0,0,0,.12,1A12.57,12.57,0,0,1,1.51.81,4.36,4.36,0,0,0,.9,3a4.43,4.43,0,0,0,2,3.69,4.4,4.4,0,0,1-2-.55v.05a4.43,4.43,0,0,0,3.56,4.35,4.18,4.18,0,0,1-1.17.16,4.6,4.6,0,0,1-.84-.08,4.45,4.45,0,0,0,4.15,3.08,8.9,8.9,0,0,1-5.51,1.9A9.28,9.28,0,0,1,0,15.58a12.52,12.52,0,0,0,6.8,2A12.53,12.53,0,0,0,19.42,5c0-.19,0-.38,0-.57a9.12,9.12,0,0,0,2.21-2.3Zm0,0" />
    </symbol>


    <symbol id="hunter" viewBox="0 0 122 122">
        <style type="text/css">
            .st0{fill:#4B7DBF;}
            .st1{fill:url(#SVGID_1_);}
            .st2{fill:url(#SVGID_2_);}
            .st3{fill:#FFFFFF;}
            .st4{fill:url(#SVGID_3_);}
            .st5{fill:url(#SVGID_4_);}
            .st6{fill:url(#SVGID_5_);}
            .st7{fill:#2585E5;}
        </style>

        <g>
            <path class="st0" d="M61,122C27.36,122,0,94.64,0,61S27.36,0,61,0s61,27.36,61,61S94.64,122,61,122z M61,1C27.92,1,1,27.92,1,61
            s26.92,60,60,60s60-26.92,60-60S94.08,1,61,1z"/>
        </g>
        <circle class="st3" cx="61" cy="61" r="47.63"/>
        <g>
            <g>
                <path class="st7" d="M70.69,56.35l-0.5-1.64c-1,0.3-2.04,0.45-3.08,0.45h-1.82v1.72h1.82C68.32,56.88,69.52,56.7,70.69,56.35
                    L70.69,56.35z M70.69,56.35"/>
                <rect x="73.87" y="80.04" class="st7" width="1.72" height="6.86"/>
                <path class="st7" d="M70.44,78.33h7.72v10.3h1.72v-3.43h1.72v-1.72h-1.72v-10.3h-1.72v3.43h-7.72V78.33z M70.44,78.33"/>
                <rect x="65.29" y="41.43" class="st7" width="1.72" height="1.72"/>
                <rect x="68.72" y="43.15" class="st7" width="3.43" height="1.72"/>
                <rect x="53.28" y="67.17" class="st7" width="1.72" height="1.72"/>
                <rect x="59.28" y="73.18" class="st7" width="1.72" height="1.72"/>
                <rect x="59.28" y="80.9" class="st7" width="5.15" height="1.72"/>
                <rect x="61.86" y="84.33" class="st7" width="3.43" height="1.72"/>
                <rect x="70.44" y="71.46" class="st7" width="5.15" height="1.72"/>
                <rect x="77.3" y="68.03" class="st7" width="1.72" height="1.72"/>
                <rect x="81.59" y="74.89" class="st7" width="1.72" height="1.72"/>
                <rect x="40.41" y="82.62" class="st7" width="1.72" height="1.72"/>
                <path class="st7" d="M80.81,64.81l-2.52-0.8L79,60.48c0.05-0.25-0.02-0.51-0.18-0.71c-0.16-0.2-0.41-0.31-0.66-0.31h-3.43
                    c0.94-1.25,1.52-2.73,1.67-4.29h0.04c1.71,0,3.16-1.26,3.4-2.96c0.24-1.7-0.81-3.31-2.46-3.77c0.17-0.66,0.15-1.35-0.08-2v-3.28
                    c0-3.32-2.69-6.01-6.01-6.01h-6.86c-3.32,0-6.01,2.69-6.01,6.01v3.28c-0.22,0.64-0.25,1.34-0.08,2c-1.65,0.47-2.7,2.08-2.46,3.77
                    c0.24,1.7,1.68,2.96,3.4,2.96h0.04c0.15,1.56,0.73,3.04,1.67,4.29h-3.43c-0.26,0-0.5,0.12-0.66,0.31
                    c-0.16,0.2-0.23,0.46-0.18,0.71l0.68,3.38l-2.92,0.36c-1,0.1-1.99,0.35-2.92,0.72v-1.71c0-1.14-0.92-2.06-2.06-2.06h-2.04
                    l-0.19-3.48c-0.03-0.45-0.4-0.81-0.86-0.81V38c0-0.47-0.38-0.86-0.86-0.86h-3.43c-0.47,0-0.86,0.38-0.86,0.86v27.45h-5.15
                    c-0.47,0-0.86,0.38-0.86,0.86v18.02c0,2.37,1.92,4.29,4.29,4.29h13.73c0.47,0,0.86-0.38,0.86-0.86v-3.43c0-0.02,0-0.03,0-0.05
                    c0-0.01,0-0.02,0-0.03c0-0.03-0.01-0.07-0.01-0.1v0c-0.01-0.03-0.02-0.06-0.03-0.1c0-0.01-0.01-0.01-0.01-0.02
                    c-0.01-0.03-0.02-0.05-0.03-0.08c0,0,0-0.01-0.01-0.01l-2.32-4.64l4.13-4.07v13.39h1.72v-10.3h7.72v-1.72h-7.72v-3.43
                    c0-0.23-0.09-0.45-0.25-0.61c-0.16-0.16-0.38-0.25-0.61-0.25v0h-4.29v1.72h2.2l-3.7,3.66l-1.64-3.27l0.95-0.47
                    c0.29-0.15,0.47-0.44,0.47-0.77V70.6c0-0.47-0.38-0.86-0.86-0.86c-0.49,0-0.96-0.17-1.32-0.49l0.26-0.29
                    c0.04-0.05,0.09-0.1,0.14-0.15c0.02-0.02,0.04-0.04,0.06-0.06c1.48-1.61,3.51-2.61,5.68-2.83c0.01,0,0.01,0,0.02,0l3.43-0.42
                    l1.67,1.67h-3.08v1.72h4.79l1.46,1.46l1.21-1.21l-4.96-4.96l-0.6-3.01h4.1v3.43c0,0.26,0.12,0.51,0.32,0.67l3.97,3.17v4.73h-4.29
                    v1.72h4.29v13.73h1.72v-6.01h1.72V80.9h-1.72V68.44l3.97-3.17c0.2-0.16,0.32-0.41,0.32-0.67v-3.43h4.1l-0.6,3.01l-4.96,4.96
                    l1.21,1.21l4.78-4.78l2.82,0.9c0.05,0.02,0.1,0.03,0.15,0.03c1.16,0.15,2.24,0.68,3.05,1.52h-2.83v1.72h3.94
                    c0.23,0.6,0.35,1.23,0.35,1.87v7.57h-3.43v1.72h3.43v7.72h1.72v-17C86.73,68.19,84.2,65.29,80.81,64.81L80.81,64.81z M49.5,62.88
                    c0.19,0,0.34,0.15,0.34,0.34v1.88l-1.21,1.21h-0.88l-0.19-3.43H49.5z M44.7,38.86v18.02h-1.72V38.86H44.7z M36.98,75.75h5.25
                    l0.34,2.57h-5.6V75.75z M36.98,67.17h5.15c0.47,0,0.86,0.38,0.86,0.86v5.15c0,0.41-0.29,0.76-0.68,0.84h0
                    c-0.06,0.01-0.11,0.02-0.17,0.02h-5.15V67.17z M39.55,86.91c-1.42,0-2.57-1.15-2.57-2.57h1.72v-1.72h-1.72v-2.57h5.83l0.92,6.86
                    H39.55z M52.42,86.91h-6.97l-0.23-1.72h7.2V86.91z M47.36,74.42l4.53,9.05h-6.9L44,76c0.68-0.75,0.96-1.78,0.74-2.77l-0.04-0.18
                    v-5.03c0-1.07-0.66-2.02-1.65-2.4l-0.06-0.27v-6.77h2.62l0.48,8.63l0.05,0.88c0,0.01,0,0.02,0,0.04c0.05,0.52,0.22,1.03,0.49,1.48
                    c0.03,0.06,0.06,0.11,0.1,0.16c0.52,0.81,1.33,1.38,2.27,1.59v1.28l-1.24,0.62C47.32,73.48,47.15,74,47.36,74.42L47.36,74.42z
                    M71.39,48.87c-2.33-0.39-4.72-0.39-7.05,0l-2.35,0.39c-0.52,0.09-1.06-0.07-1.45-0.43c-0.39-0.36-0.61-0.87-0.57-1.4h15.81
                    c0.03,0.53-0.18,1.05-0.57,1.4c-0.39,0.36-0.93,0.51-1.45,0.43L71.39,48.87z M78.16,51.73c0,0.95-0.77,1.71-1.72,1.72v-3.42
                    c0,0,0.01-0.01,0.01-0.01C77.4,50.02,78.16,50.79,78.16,51.73L78.16,51.73z M61.86,39.72c0.74-0.56,1.65-0.86,2.57-0.86h6.86
                    c0.93,0,1.83,0.3,2.57,0.86h-3.43v1.72h4.79c0.24,0.54,0.36,1.12,0.36,1.72h-1.72v1.72h1.72v0.86H60.14v-2.57h3.43v-1.72H60.5
                    C60.8,40.76,61.27,40.16,61.86,39.72L61.86,39.72z M58.07,52.94c-0.49-0.49-0.64-1.22-0.37-1.87c0.26-0.64,0.89-1.06,1.58-1.06
                    l0.01,0.01v3.42C58.83,53.44,58.39,53.26,58.07,52.94L58.07,52.94z M61,54.3v-3.37c0.42,0.08,0.85,0.09,1.27,0.02l0.52-0.09
                    c-0.15,0.43-0.07,0.91,0.22,1.26c0.29,0.35,0.75,0.52,1.2,0.44c0.45-0.07,0.83-0.38,0.99-0.81c0.16-0.43,0.09-0.91-0.19-1.26
                    c1.89-0.28,3.81-0.28,5.7,0c-0.28,0.36-0.36,0.84-0.19,1.26c0.16,0.43,0.54,0.73,0.99,0.81c0.45,0.07,0.91-0.1,1.2-0.45
                    c0.29-0.35,0.38-0.83,0.22-1.26l0.52,0.09c0.42,0.1,0.85,0.09,1.27-0.02v3.37c0.01,1.97-0.85,3.85-2.34,5.15h-0.24
                    c-0.45,0-0.82,0.35-0.85,0.79c-0.1,0.06-0.19,0.11-0.28,0.15c-0.01,0-0.02,0.01-0.02,0.01c-1.96,1.01-4.3,1.01-6.26,0
                    c-0.01,0-0.01-0.01-0.02-0.01c-0.09-0.04-0.19-0.1-0.28-0.15c-0.03-0.45-0.41-0.79-0.85-0.79h-0.24
                    C61.85,58.16,60.99,56.28,61,54.3L61,54.3z M64.43,62.16c2.19,0.96,4.68,0.96,6.86,0v2.02l-3.43,2.75l-3.43-2.75V62.16z
                    M64.43,62.16"/>
            </g>
        </g>
    </symbol>


</svg>

