<?xml version="1.0" encoding="utf-8"?>
<!-- Generator: Adobe Illustrator 24.0.2, SVG Export Plug-In . SVG Version: 6.00 Build 0)  -->
<svg version="1.1" id="Слой_1" xmlns="http://www.w3.org/2000/svg" xmlns:xlink="http://www.w3.org/1999/xlink" x="0px" y="0px"
	 viewBox="0 0 46.5 46.75" style="enable-background:new 0 0 46.5 46.75;" xml:space="preserve">
<style type="text/css">
	.st0{fill:#4B7DBF;}
	.st1{fill:url(#SVGID_1_);}
	.st2{fill:url(#SVGID_2_);}
	.st3{fill:#FFFFFF;}
	.st4{fill:url(#SVGID_3_);}
	.st5{fill:url(#SVGID_4_);}
	.st6{fill:url(#SVGID_5_);}
	.st7{fill:#2585E5;}
</style>
<g>
	<path class="st3" d="M38.98,15.27l4.14-2.39c0.41-0.24,0.54-0.75,0.31-1.16c-0.24-0.41-0.75-0.54-1.16-0.31l-4.14,2.39
		c-0.4,0.24-0.54,0.75-0.31,1.16C38.06,15.37,38.58,15.51,38.98,15.27z"/>
	<path class="st3" d="M43.13,33.88l-4.14-2.39c-0.41-0.24-0.92-0.1-1.16,0.31c-0.24,0.4-0.1,0.92,0.31,1.16l4.14,2.39
		c0.41,0.24,0.92,0.1,1.16-0.31C43.67,34.63,43.53,34.11,43.13,33.88z"/>
	<path class="st3" d="M23.32,40.14c-0.47-0.03-0.88,0.32-0.91,0.79c0,0.04,0,0.08,0,0.13v4.78c-0.04,0.47,0.32,0.88,0.79,0.91
		c0.47,0.03,0.88-0.32,0.91-0.79c0-0.04,0-0.08,0-0.13v-4.78C24.14,40.58,23.78,40.17,23.32,40.14z"/>
	<path class="st3" d="M8.37,13.81l-4.14-2.39c-0.4-0.24-0.92-0.1-1.16,0.31c-0.24,0.4-0.1,0.92,0.31,1.16l4.14,2.39
		c0.41,0.24,0.92,0.1,1.16-0.31C8.91,14.56,8.77,14.04,8.37,13.81z"/>
	<path class="st3" d="M23.25,6.55c0.47,0,0.85-0.38,0.85-0.85V0.92c0.03-0.47-0.32-0.88-0.79-0.91c-0.47-0.03-0.88,0.32-0.91,0.79
		c0,0.04,0,0.08,0,0.13V5.7C22.4,6.17,22.78,6.55,23.25,6.55z"/>
	<path class="st3" d="M13.68,8.49c0.24,0.41,0.75,0.54,1.16,0.31c0.41-0.24,0.54-0.75,0.31-1.16L12.75,3.5
		C12.52,3.09,12,2.96,11.59,3.19c-0.41,0.24-0.54,0.75-0.31,1.16L13.68,8.49z"/>
	<path class="st3" d="M23.38,15.81c-0.04,0-0.08,0-0.13,0c-4.18,0-7.57,3.39-7.57,7.57c0,0.47,0.38,0.85,0.85,0.85
		c0.47,0,0.85-0.38,0.85-0.85c0-3.24,2.62-5.86,5.86-5.87c0,0,0.01,0,0.01,0c0.47,0.04,0.88-0.32,0.91-0.79
		C24.2,16.25,23.85,15.84,23.38,15.81z"/>
	<path class="st3" d="M45.71,22.52h-4.78c-0.47-0.03-0.88,0.32-0.91,0.79c-0.03,0.47,0.32,0.88,0.79,0.91c0.04,0,0.08,0,0.13,0h4.78
		c0.47-0.03,0.82-0.44,0.79-0.91C46.47,22.89,46.13,22.55,45.71,22.52z"/>
	<path class="st3" d="M6.49,23.44c0.03-0.47-0.32-0.88-0.79-0.91c-0.04,0-0.08,0-0.13,0H0.79C0.32,22.56-0.03,22.97,0,23.44
		c0.03,0.42,0.37,0.76,0.79,0.79h4.78C6.04,24.26,6.45,23.91,6.49,23.44z"/>
	<path class="st3" d="M23.25,10.86c-6.91,0-12.52,5.6-12.52,12.52c0,3.32,1.32,6.51,3.67,8.85c2.34,2.35,5.53,3.67,8.85,3.66
		c6.91,0,12.52-5.6,12.52-12.51C35.77,16.46,30.17,10.86,23.25,10.86z M30.9,31.04c-4.22,4.22-11.07,4.22-15.3,0
		c-2.03-2.03-3.17-4.79-3.17-7.66c0-2.87,1.14-5.62,3.17-7.65v0.01c4.22-4.22,11.07-4.22,15.3,0C35.12,19.97,35.12,26.81,30.9,31.04
		z"/>
	<path class="st3" d="M35.21,42.4l-2.39-4.14c-0.24-0.4-0.75-0.54-1.16-0.31c-0.4,0.24-0.54,0.75-0.31,1.16l2.39,4.14
		c0.23,0.4,0.75,0.54,1.16,0.31C35.31,43.33,35.45,42.81,35.21,42.4C35.21,42.4,35.21,42.4,35.21,42.4z"/>
	<path class="st3" d="M31.68,8.8C31.68,8.8,31.68,8.8,31.68,8.8c0.41,0.24,0.93,0.1,1.16-0.3c0,0,0,0,0,0l2.39-4.14
		c0.24-0.41,0.1-0.92-0.31-1.16c-0.41-0.24-0.92-0.1-1.16,0.31l-2.39,4.14C31.14,8.04,31.28,8.56,31.68,8.8z"/>
	<path class="st3" d="M14.84,37.95c-0.4-0.24-0.92-0.1-1.16,0.31l-2.39,4.14c-0.24,0.41-0.1,0.92,0.31,1.16
		c0.4,0.24,0.92,0.1,1.16-0.31l2.39-4.14C15.38,38.71,15.25,38.19,14.84,37.95z"/>
	<path class="st3" d="M7.51,31.48l-4.14,2.39c-0.41,0.24-0.54,0.75-0.31,1.16c0.24,0.4,0.76,0.54,1.16,0.31l4.14-2.39
		c0.41-0.24,0.54-0.75,0.31-1.16C8.44,31.38,7.92,31.24,7.51,31.48z"/>
</g>
</svg>
